<?xml version="1.0" encoding="UTF-8"?>
<svg id="_レイヤー_1" data-name="レイヤー 1" xmlns="http://www.w3.org/2000/svg" version="1.1" viewBox="0 0 163.76 22.36">
  <defs>
    <style>
      .cls-1 {
        fill: #231916;
        stroke-width: 0px;
      }
    </style>
  </defs>
  <path class="cls-1" d="M0,11.18C0,4.38,5.12-.21,11.49-.21c1.1,0,2.08.12,3,.28v1.13c-.92-.15-1.87-.28-2.91-.28C5.61.92,1.26,5.24,1.26,11.18s4.35,10.26,10.32,10.26c1.04,0,1.99-.12,2.91-.28v1.13c-.92.15-1.9.28-3,.28C5.12,22.58,0,17.98,0,11.18Z"/>
  <path class="cls-1" d="M18.9,0h1.47l-1.99,7.81h-1.01l1.53-7.81Z"/>
  <path class="cls-1" d="M24.86,22.36v-1.13c1.19.09,2.36.15,3.03.15,2.76,0,4.14-.98,4.14-2.97,0-1.41-.77-2.36-2.67-3.49l-1.16-.7c-2.33-1.41-3.4-2.73-3.4-4.44,0-2.24,1.84-3.71,4.75-3.71.61,0,1.53.06,2.39.15v1.07c-.95-.09-1.65-.12-2.14-.12-2.48,0-3.83.95-3.83,2.6,0,1.29.86,2.24,2.79,3.43l1.26.77c2.21,1.35,3.19,2.6,3.19,4.41,0,2.57-1.96,4.14-5.3,4.14-.67,0-1.84-.06-3.03-.15Z"/>
  <path class="cls-1" d="M43.79,11.18C43.79,4.38,48.91-.21,55.28-.21c1.1,0,2.08.12,3,.28v1.13c-.92-.15-1.87-.28-2.91-.28-5.97,0-10.32,4.32-10.32,10.26s4.35,10.26,10.32,10.26c1.04,0,1.99-.12,2.91-.28v1.13c-.92.15-1.9.28-3,.28-6.37,0-11.49-4.6-11.49-11.4Z"/>
  <path class="cls-1" d="M63.86,11.52v10.84h-1.23V0h4.87c3.89,0,6.37,2.27,6.37,5.79,0,3.25-2.48,5.76-6.37,5.76h-2.05l9.86,10.81h-1.62l-9.83-10.84ZM67.38,10.42c3.37,0,5.27-1.87,5.27-4.63s-1.9-4.63-5.27-4.63h-3.52v9.25h3.52Z"/>
  <path class="cls-1" d="M78.99,0h10.63v1.16h-9.41v8.88h9.28v1.16h-9.28v9.99h9.56v1.16h-10.78V0Z"/>
  <path class="cls-1" d="M100.31,0h1.1l7.84,22.36h-1.32l-2.02-5.82h-10.08l-2.02,5.82h-1.29L100.31,0ZM105.52,15.38l-4.66-13.39-4.63,13.39h9.28Z"/>
  <path class="cls-1" d="M116.58,1.16h-6.13V0h13.48v1.16h-6.13v21.2h-1.23V1.16Z"/>
  <path class="cls-1" d="M127.58,0h1.23v22.36h-1.23V0Z"/>
  <path class="cls-1" d="M132.82,0h1.32l6.77,20.31,6.74-20.31h1.29l-7.47,22.36h-1.1l-7.54-22.36Z"/>
  <path class="cls-1" d="M152.98,0h10.63v1.16h-9.41v8.88h9.28v1.16h-9.28v9.99h9.56v1.16h-10.78V0Z"/>
</svg>