<?xml version="1.0" encoding="UTF-8"?>
<svg id="_レイヤー_1" data-name="レイヤー 1" xmlns="http://www.w3.org/2000/svg" version="1.1" viewBox="0 0 283.46 124.46">
  <defs>
    <style>
      .cls-1 {
        fill: #231916;
        stroke-width: 0px;
      }
      .cls-2 {
        fill: #fff;
        stroke-width: 0px;
        filter: drop-shadow(0px 0px 5px rgba(0, 0, 0, 0.5));
      }
    </style>
  </defs>
  <g>
    <path class="cls-1" d="M59.85,113.28c0-6.8,5.12-11.4,11.49-11.4,1.1,0,2.08.12,3,.28v1.13c-.92-.15-1.87-.28-2.91-.28-5.97,0-10.32,4.32-10.32,10.26s4.35,10.26,10.32,10.26c1.04,0,1.99-.12,2.91-.28v1.13c-.92.15-1.9.28-3,.28-6.37,0-11.49-4.6-11.49-11.4Z"/>
    <path class="cls-1" d="M78.75,102.1h1.47l-1.99,7.81h-1.01l1.53-7.81Z"/>
    <path class="cls-1" d="M84.71,124.46v-1.13c1.19.09,2.36.15,3.03.15,2.76,0,4.14-.98,4.14-2.97,0-1.41-.77-2.36-2.67-3.49l-1.16-.7c-2.33-1.41-3.4-2.73-3.4-4.44,0-2.24,1.84-3.71,4.75-3.71.61,0,1.53.06,2.39.15v1.07c-.95-.09-1.65-.12-2.14-.12-2.48,0-3.83.95-3.83,2.6,0,1.29.86,2.24,2.79,3.43l1.26.77c2.21,1.35,3.19,2.6,3.19,4.41,0,2.57-1.96,4.14-5.3,4.14-.67,0-1.84-.06-3.03-.15Z"/>
    <path class="cls-1" d="M103.64,113.28c0-6.8,5.12-11.4,11.49-11.4,1.1,0,2.08.12,3,.28v1.13c-.92-.15-1.87-.28-2.91-.28-5.97,0-10.32,4.32-10.32,10.26s4.35,10.26,10.32,10.26c1.04,0,1.99-.12,2.91-.28v1.13c-.92.15-1.9.28-3,.28-6.37,0-11.49-4.6-11.49-11.4Z"/>
    <path class="cls-1" d="M123.71,113.62v10.84h-1.23v-22.36h4.87c3.89,0,6.37,2.27,6.37,5.79,0,3.25-2.48,5.76-6.37,5.76h-2.05l9.86,10.81h-1.62l-9.83-10.84ZM127.23,112.52c3.37,0,5.27-1.87,5.27-4.63s-1.9-4.63-5.27-4.63h-3.52v9.25h3.52Z"/>
    <path class="cls-1" d="M138.84,102.1h10.63v1.16h-9.41v8.88h9.28v1.16h-9.28v9.99h9.56v1.16h-10.78v-22.36Z"/>
    <path class="cls-1" d="M160.17,102.1h1.1l7.84,22.36h-1.32l-2.02-5.82h-10.08l-2.02,5.82h-1.29l7.78-22.36ZM165.37,117.48l-4.66-13.39-4.63,13.39h9.28Z"/>
    <path class="cls-1" d="M176.43,103.26h-6.13v-1.16h13.48v1.16h-6.13v21.2h-1.23v-21.2Z"/>
    <path class="cls-1" d="M187.43,102.1h1.23v22.36h-1.23v-22.36Z"/>
    <path class="cls-1" d="M192.67,102.1h1.32l6.77,20.31,6.74-20.31h1.29l-7.47,22.36h-1.1l-7.54-22.36Z"/>
    <path class="cls-1" d="M212.83,102.1h10.63v1.16h-9.41v8.88h9.28v1.16h-9.28v9.99h9.56v1.16h-10.78v-22.36Z"/>
  </g>
  <g>
    <path class="cls-2" d="M23.9,86.44l-11.54-42.51c-1.77-6.52-3.67-14.8-4.75-21.73h-.27c.27,7.33.54,15.08.54,21.6v42.65H0V-.21h8.42l11,41.83c1.77,6.65,3.67,14.12,4.75,20.64h.27c-.41-6.93-.54-14.4-.54-20.64V-.21h8.01v86.65h-8.01Z"/>
    <path class="cls-2" d="M84.01,86.44v-39.93h-13.72v39.93h-8.15V-.21h8.15v39.39h13.72V-.21h8.28v86.65h-8.28Z"/>
    <path class="cls-2" d="M137.39,86.84c-8.83,0-14.67-5.43-14.67-13.99V-.62h8.15v72.93c0,4.75,2.85,7.06,6.65,7.06s6.38-2.31,6.38-7.06V-.62h8.28v73.48c0,8.56-5.84,13.99-14.8,13.99Z"/>
    <path class="cls-2" d="M217.95,86.44l-1.63-47.94c-.27-6.79-.27-15.08-.14-24.18h-.41c-.68,8.01-1.49,17.66-2.31,24.31l-6.11,47.81h-9.51l-6.25-47.81c-.95-6.38-2.04-17.11-2.72-24.18h-.27c.27,9.24.14,16.84-.14,24.18l-1.49,47.81h-8.01L182.37-.21h11.68l6.25,47.4c.81,7.06,1.63,17.11,2.17,23.9h.27c.54-6.79,1.22-17.11,2.04-23.9L210.75-.21h11.82l3.4,86.65h-8.01Z"/>
    <path class="cls-2" d="M264.04-.28h7.74l11.68,86.79h-8.15l-2.85-24.04h-9.37l-2.85,24.04h-7.61L264.04-.28ZM264.04,55.4h7.47l-1.77-15.08c-.81-6.52-1.36-15.08-1.9-22.95h-.27c-.41,7.88-.81,16.3-1.77,22.95l-1.77,15.08Z"/>
  </g>
</svg>