<?xml version="1.0" encoding="UTF-8"?>
<svg id="_レイヤー_1" data-name="レイヤー 1" xmlns="http://www.w3.org/2000/svg" version="1.1" viewBox="0 0 308.25 105.53">
  <defs>
    <style>
      .cls-1 {
        <!-- fill: #c0bab0; -->
        fill: #000;
        stroke-width: 0px;
        <!-- add a text shadow -->
        filter: drop-shadow(0px 0px 5px rgba(0, 0, 0, 0.5));
      }
    </style>
  </defs>
  <path class="cls-1" d="M37.57,96.08l-11.54-42.51c-1.77-6.52-3.67-14.8-4.75-21.73h-.27c.27,7.33.54,15.08.54,21.6v42.65h-7.88V9.43h8.42l11,41.83c1.77,6.65,3.67,14.12,4.75,20.64h.27c-.41-6.93-.54-14.4-.54-20.64V9.43h8.01v86.65h-8.01Z"/>
  <path class="cls-1" d="M97.67,96.08v-39.93h-13.72v39.93h-8.15V9.43h8.15v39.39h13.72V9.43h8.28v86.65h-8.28Z"/>
  <path class="cls-1" d="M151.06,96.49c-8.83,0-14.67-5.43-14.67-13.99V9.02h8.15v72.93c0,4.75,2.85,7.06,6.65,7.06s6.38-2.31,6.38-7.06V9.02h8.28v73.48c0,8.56-5.84,13.99-14.8,13.99Z"/>
  <path class="cls-1" d="M231.62,96.08l-1.63-47.94c-.27-6.79-.27-15.08-.14-24.18h-.41c-.68,8.01-1.49,17.66-2.31,24.31l-6.11,47.81h-9.51l-6.25-47.81c-.95-6.38-2.04-17.11-2.72-24.18h-.27c.27,9.24.14,16.84-.14,24.18l-1.49,47.81h-8.01l3.4-86.65h11.68l6.25,47.4c.81,7.06,1.63,17.11,2.17,23.9h.27c.54-6.79,1.22-17.11,2.04-23.9l5.98-47.4h11.82l3.4,86.65h-8.01Z"/>
  <path class="cls-1" d="M277.71,9.36h7.74l11.68,86.79h-8.15l-2.85-24.04h-9.37l-2.85,24.04h-7.61l11.41-86.79ZM277.71,65.05h7.47l-1.77-15.08c-.81-6.52-1.36-15.08-1.9-22.95h-.27c-.41,7.88-.81,16.3-1.77,22.95l-1.77,15.08Z"/>
</svg>