<?xml version="1.0" encoding="UTF-8"?>
<svg id="Layer_2" data-name="Layer 2" xmlns="http://www.w3.org/2000/svg" viewBox="0 0 165.33 49.27">
  <defs>
    <style>
      .cls-1, .cls-2 {
        fill: none;
      }

      .cls-3 {
        fill: #005e4a;
      }

      .cls-2 {
        isolation: isolate;
      }

      .cls-4 {
        fill: #005b49;
      }
    </style>
  </defs>
  <g id="_レイヤー_2" data-name="レイヤー 2">
    <g>
      <g>
        <g>
          <g>
            <path class="cls-4" d="M161.9,10.13c.33,0,3.03,0,3.37,0,0-.38.02-4.24.02-4.35-.03-1.53-1.34-2.04-1.84-2.04h-3.26s1.46-3.1,1.65-3.52h-3.53c-.09.29-1.6,3.53-1.6,3.53h-3.73s-1.72-3.27-1.81-3.53c-.25,0-2.89,0-3.38,0,.16.41,1.71,3.53,1.71,3.53h-3.39s-1.67-3.27-1.76-3.53h-3.36c.15.42,1.73,3.53,1.73,3.53,0,0-3.95,0-4.31,0v6.36h3.34v-3.96h20.15s0,3.62,0,3.98Z"/>
            <path class="cls-4" d="M152.97,26.98c.89-.88.99-2.32.98-2.31v-6.43h11.38c0-.33,0-2.09,0-2.42h-11.46s6.09-4.72,6.23-4.83c0-.17,0-2.49,0-2.84h-16.61c0,.33,0,2.02,0,2.35h12.16s-5.15,3.45-5.3,3.57c0,.17-.03,1.75-.03,1.75h-11.88c0,.33,0,2.09,0,2.42h11.88v6.29s.05.88-.87.87h-4.25c0,.33,0,2.07,0,2.41h5.14s1.77.05,2.65-.83Z"/>
          </g>
          <path class="cls-4" d="M120.6,13.81s1.66,6.63,11.27,14.3c.21-.26,2.75-3.1,2.75-3.1-11.89-9.2-11.89-16.04-11.89-16.04,0,0,11.38.02,11.4.02.01,0,0-3.23,0-3.23,0,0-11.6,0-11.6,0,0,0,0-5.76,0-5.76,0,0-4.04,0-4.02,0-.02.02,0,5.76,0,5.76,0,0-11.46-.03-11.44,0-.02-.03,0,2.89,0,3.23.39,0,11.29-.02,11.29-.02,0,0,.6,7.02-11.45,16.28.24.3,2.17,2.63,2.38,2.89,10.14-8.72,11.3-14.34,11.3-14.34Z"/>
          <g>
            <path class="cls-4" d="M56.82,3.73h-11.1c0,.54,0,4.68,0,4.95h2.94v-2.95h1.98s.01,2.66.01,2.96c.32,0,1.97,0,2.29,0,0-.3,0-2.94,0-2.94h1.98v2.94c.34,0,1.68,0,1.68,0v.74h-10.56v6.81c.06,1.93-.09,3.99-.43,5.03.2-1.28-.2,1.92-1.87,2.74,0,.24,0,3.3,0,3.96,1.48-.64,3.56-2.2,4.61-5.52.53-1.68.6-4.2.6-4.2h2.4v6.72s-.85.14-1.09.19c0,.3,0,2.58,0,2.97,3.83-.6,6.81-1.15,9.28-1.81v-2.7c-3.16.77-5.27,1.1-5.27,1.1v-2.5h5.3c0-.33,0-1.91,0-2.24h-5.27v-1.77h6.86c0,1.45,0,7.39,0,7.39,0,.39-.2,2.04,1.66,2.03,0,0,6.85,0,6.87,0,1.47,0,1.36-1.44,1.36-1.43v-3.24c-.34,0-2.53,0-2.87,0v2.44h-4.12v-3.19s5.3.01,5.68.01c0-.33,0-2.27,0-2.27,0,0-5.65,0-5.65,0v-1.69s6.57,0,6.57,0c0,0,0-2.83,0-4.4-.03-.59-.26-.94-1.03-1.01h-6.18v-1.42s7.58,0,7.58,0c0,0,0-2.02,0-2.01,0,0-11.45,0-11.45,0v-.74s2.12,0,2.44,0v-2.97h2.01v3c.32,0,2.25,0,2.57,0v-2.98h1.95v2.95h2.44c0-.33,0-3.61,0-3.68-.03-.09.31-1.26-1.13-1.31h-10.79v4.15h-1.5s0-2.13,0-3.33c-.02-.51-.22-.76-.75-.79ZM53.75,16.27h-4.81v-1.5h4.81v1.5ZM53.75,12.81h-4.84v-1.39h4.84v1.39ZM63.48,14.8h4.27v1.5h-4.27v-1.5ZM60.52,16.28h-3.8v-1.49h3.8v1.49ZM60.52,11.46v1.36s-3.81.01-3.81.01v-1.37h3.81Z"/>
            <path class="cls-4" d="M70.96,2.61c0-.33,0-1.67,0-2.01h-11.89c0,.33,0,1.68,0,2.01h11.89Z"/>
            <path class="cls-4" d="M57.57,2.61c0-.33.01-1.67.01-2.01h-11.86c0,.33,0,1.67,0,2.01h11.84Z"/>
          </g>
          <g>
            <path class="cls-4" d="M77.62,1.75c-.17.28-1.32,2.17-1.5,2.47.33.19,4.3,2.44,4.61,2.62.17-.28,1.36-2.19,1.55-2.49-.34-.19-4.34-2.43-4.66-2.6Z"/>
            <path class="cls-4" d="M75.65,8.49c-.09.31-.66,2.35-.75,2.67.37.08,6.19,1.6,6.54,1.68.08-.31.61-2.34.69-2.66-.36-.09-6.14-1.62-6.48-1.7Z"/>
            <path class="cls-4" d="M82.19,16.01c-.3-.1-2.34-.8-2.68-.92-.24.81-1.2,4.08-1.75,5.42-.81,2-1.58,3.35-2.95,5.44.32.15,2.58,1.18,2.89,1.32.37-.74,2.08-3.74,2.87-5.95.58-1.62,1.41-4.55,1.62-5.31Z"/>
            <path class="cls-4" d="M103.01,19.24c0-.32,0-2,0-2.32-.37,0-4.29,0-4.29,0l.86-2.1s3.88,0,4.24,0v-2.28c-.39,0-9.39,0-9.39,0v-1.34h7.04c0-.32,0-2.02,0-2.34-.39,0-7.04,0-7.04,0v-1.6s7.59,0,8.57,0c0-.38.02-4.77,0-4.86-.07-1.77-1.41-1.81-2.06-1.81,0,0-17.71,0-18.12,0v6.67h8.63v1.6h-7.08c0,.32,0,2.02,0,2.34h7.08v1.34h-9.19c0,.32,0,1.96,0,2.28.36,0,4.07,0,4.07,0l.65,2.1h-4.19c0,.32,0,2,0,2.32.4,0,8.64,0,8.64,0v1.68h-7.75c0,.31,0,2.04,0,2.36.4,0,7.75,0,7.75,0v4.92c.35,0,2.65,0,3,0v-4.93h7.74c0-.31,0-2.03,0-2.36h-7.74v-1.68h8.57ZM97.36,2.7h2.65v2.46h-2.65v-2.46ZM88.46,5.15h-2.67v-2.44h2.67v2.44ZM91.42,2.7h2.97v2.44h-2.97v-2.44ZM90.09,16.91l-.62-2.1h7.08l-.8,2.1h-5.66Z"/>
          </g>
        </g>
        <g>
          <g>
            <path class="cls-4" d="M43.82,35.78c-.03-.69-.05-1.39-.09-2.1.31.02.62.04.93.05.3.02.61.02.92.02s.62-.01.93-.04c.3-.03.61-.04.93-.04.45,0,.89.04,1.3.13.41.09.77.23,1.08.43.31.2.55.46.73.79.18.32.27.73.27,1.21,0,.52-.12.97-.35,1.34-.23.37-.52.68-.85.92-.34.24-.7.43-1.08.57-.39.13-.73.22-1.05.27.13.16.31.39.53.68.23.29.48.61.76.96.28.35.57.72.88,1.1.3.38.6.75.88,1.1.28.35.55.67.8.97.25.29.45.51.6.66-.16-.02-.33-.03-.49-.03h-.96c-.16,0-.32.01-.47.03-.16-.23-.41-.57-.74-1.02-.33-.45-.69-.94-1.1-1.46-.4-.52-.81-1.04-1.23-1.55-.42-.51-.8-.95-1.15-1.31h-.62v1.18c0,.72.01,1.42.04,2.11.03.69.06,1.38.09,2.04-.25-.02-.51-.03-.79-.03s-.54.01-.79.03c.03-.67.06-1.35.09-2.04.03-.69.04-1.39.04-2.11v-2.79c0-.71-.01-1.41-.04-2.1ZM45.69,38.88c.18,0,.37.02.59.02.34,0,.69-.04,1.05-.11.36-.08.69-.21,1-.4.3-.19.55-.44.75-.76.2-.32.3-.72.3-1.21,0-.42-.08-.77-.24-1.04-.16-.28-.36-.5-.61-.66-.25-.16-.52-.27-.81-.33-.29-.06-.58-.09-.86-.09-.38,0-.69,0-.94.02-.25.02-.46.04-.63.06-.02.59-.04,1.19-.07,1.77-.02.59-.03,1.17-.03,1.75v.93c.15.03.32.05.5.06Z"/>
            <path class="cls-4" d="M52.26,44.98l-.34-.04c-.17-.02-.32-.03-.47-.03h-.96c-.15,0-.3,0-.46.03h-.07s-.04-.05-.04-.05c-.16-.23-.41-.57-.74-1.02-.32-.44-.68-.92-1.09-1.46-.38-.5-.79-1.02-1.22-1.55-.4-.49-.77-.91-1.1-1.27h-.45v1.07c0,.73.01,1.43.04,2.11.03.69.06,1.38.09,2.04v.13s-.13-.01-.13-.01c-.51-.04-1.05-.04-1.57,0h-.13s0-.12,0-.12c.03-.67.06-1.35.09-2.04.03-.69.04-1.39.04-2.1v-2.79c0-.71-.01-1.42-.04-2.1-.03-.69-.05-1.38-.09-2.1v-.13s.18.01.18.01c.29.02.58.04.86.05.6.03,1.24.04,1.84-.01.68-.06,1.53-.06,2.26.09.43.09.8.24,1.12.44.32.21.58.49.77.83.19.34.28.77.28,1.27,0,.54-.12,1.01-.37,1.4-.24.38-.54.71-.88.96-.34.25-.72.44-1.11.58-.31.11-.6.19-.87.24.11.14.25.32.41.52.23.29.48.61.76.96.28.35.57.72.88,1.1.3.38.59.75.87,1.1.28.35.55.67.79.96.25.3.45.51.59.66l.24.24ZM45.08,39.37h.79l.03.04c.35.36.74.8,1.15,1.31.43.53.84,1.05,1.23,1.55.42.54.78,1.02,1.1,1.46.3.42.54.74.7.96.14-.01.28-.02.42-.02h.96c.06,0,.12,0,.19,0-.11-.12-.24-.27-.39-.44-.25-.29-.51-.62-.8-.97-.28-.35-.57-.72-.88-1.1-.3-.39-.6-.75-.88-1.1-.28-.35-.54-.67-.76-.96-.23-.29-.41-.52-.54-.68l-.13-.16.2-.03c.3-.04.65-.13,1.03-.26.37-.13.72-.32,1.05-.55.32-.23.59-.53.82-.89.22-.35.33-.78.33-1.28,0-.46-.09-.85-.25-1.16-.17-.31-.4-.56-.69-.75-.29-.19-.64-.33-1.04-.41-.71-.15-1.53-.15-2.19-.09-.61.05-1.26.05-1.87.02-.26-.01-.52-.03-.8-.05.03.67.05,1.33.08,1.97.03.68.04,1.39.04,2.1v2.79c0,.71-.01,1.42-.04,2.11-.03.65-.05,1.28-.08,1.91.44-.03.9-.03,1.34,0-.03-.63-.06-1.27-.08-1.91-.03-.68-.04-1.39-.04-2.11v-1.3ZM46.28,39.02c-.22,0-.42,0-.6-.02-.19-.01-.36-.03-.51-.07l-.09-.02v-1.02c0-.59.01-1.18.03-1.76.02-.58.04-1.17.06-1.77v-.1s.1-.01.1-.01c.18-.02.39-.04.64-.06.5-.03,1.15-.07,1.83.07.3.06.59.18.85.35.26.17.48.4.65.7.17.29.25.66.25,1.1,0,.51-.11.94-.32,1.27-.21.33-.48.6-.79.8-.31.19-.66.33-1.04.41-.37.08-.73.12-1.07.12ZM45.31,38.72c.12.02.25.04.38.04.44.03,1.03.03,1.61-.1.36-.07.67-.2.96-.38.28-.18.52-.42.72-.73.19-.3.28-.68.28-1.15,0-.4-.08-.73-.22-.99-.15-.26-.34-.47-.57-.62-.24-.15-.5-.26-.77-.32-.66-.13-1.29-.09-1.77-.06-.2.01-.37.03-.53.04-.02.56-.04,1.12-.06,1.67-.02.57-.03,1.16-.03,1.75v.83Z"/>
          </g>
          <g>
            <path class="cls-4" d="M53.38,38.09c.63-.76,1.56-1.14,2.77-1.14.58,0,1.07.09,1.49.27.42.18.77.42,1.05.72.28.3.49.65.63,1.05.13.4.2.83.2,1.28,0,.11,0,.22,0,.32,0,.1-.01.21-.02.32-.59-.01-1.17-.02-1.74-.03-.58,0-1.16-.02-1.74-.02-.36,0-.71,0-1.06.02-.35.01-.71.02-1.07.03-.01.05-.01.13-.01.24v.21c0,.42.06.82.19,1.19.12.37.31.68.54.95.24.27.53.48.88.63.35.15.75.23,1.21.23.22,0,.44-.03.67-.09.23-.06.45-.14.67-.24.22-.1.42-.22.61-.36.19-.14.35-.29.5-.45l.08.05-.1.8c-.33.26-.73.48-1.21.67-.48.18-.99.28-1.51.28-.59,0-1.12-.09-1.6-.27-.48-.18-.9-.44-1.25-.78-.35-.34-.62-.74-.81-1.21-.19-.47-.29-.97-.29-1.51,0-1.33.32-2.38.95-3.13ZM55.17,37.74c-.28.18-.5.41-.68.69-.18.28-.32.58-.41.91-.09.33-.15.64-.17.94.34.01.69.02,1.05.03.36.01.72.02,1.07.02s.72,0,1.09-.02c.37-.01.73-.02,1.07-.03,0-.29-.02-.6-.07-.93-.05-.33-.15-.63-.29-.91-.15-.28-.35-.52-.61-.7-.26-.18-.6-.28-1.02-.28-.4,0-.74.09-1.02.28Z"/>
            <path class="cls-4" d="M56.38,45.11c-.6,0-1.15-.09-1.64-.27-.5-.18-.93-.45-1.29-.81-.36-.35-.65-.77-.84-1.25-.19-.48-.29-1-.29-1.56,0-1.35.33-2.43.98-3.21.66-.78,1.62-1.18,2.87-1.18.59,0,1.11.09,1.53.28.43.18.8.43,1.09.74.29.31.51.68.65,1.09.14.41.21.86.21,1.32,0,.11,0,.22,0,.32,0,.1-.01.21-.02.32v.11s-1.86-.03-1.86-.03c-.92-.01-1.88-.03-2.8,0l-.96.03s0,.08,0,.13v.21c0,.41.06.79.18,1.15.12.35.29.65.52.91.23.25.51.46.84.61.33.15.72.22,1.16.22.2,0,.41-.03.64-.09.23-.06.44-.14.65-.23.21-.1.41-.22.59-.35.18-.14.34-.28.48-.44l.07-.07.23.14-.11.92-.04.03c-.33.27-.75.5-1.24.69-.49.19-1.02.28-1.55.28ZM56.15,37.07c-1.17,0-2.08.37-2.68,1.1-.61.73-.93,1.76-.93,3.06,0,.52.09,1.02.28,1.47.18.45.45.84.78,1.17.34.33.75.58,1.21.75.47.17.99.26,1.56.26.5,0,.99-.09,1.46-.27.45-.17.83-.38,1.14-.62l.07-.55c-.11.11-.23.21-.37.31-.2.15-.41.27-.63.38-.21.1-.45.19-.69.25-.24.06-.48.09-.7.09-.47,0-.89-.08-1.25-.25-.36-.17-.67-.39-.92-.66-.25-.28-.44-.61-.57-.99-.13-.38-.19-.79-.19-1.22v-.21c0-.12,0-.21.02-.27l.02-.09,1.16-.03c.93-.03,1.89-.02,2.81,0l1.63.03c0-.07,0-.14.01-.2,0-.1,0-.2,0-.31,0-.44-.07-.86-.2-1.25-.13-.38-.33-.72-.6-1.01-.27-.28-.61-.52-1.01-.69-.4-.17-.88-.26-1.44-.26ZM56.02,40.45c-.35,0-.71,0-1.07-.02-.36,0-.71-.02-1.05-.03h-.12s0-.13,0-.13c.02-.29.08-.61.18-.96.09-.34.24-.66.42-.94.18-.29.42-.53.71-.73.29-.2.66-.3,1.08-.3.45,0,.81.1,1.09.3.27.19.49.44.64.74.15.3.26.61.31.95.05.33.07.65.07.94v.11h-.11c-.35.01-.71.02-1.07.03-.37.01-.73.02-1.09.02ZM54.03,40.17c.3.01.61.02.92.03.74.02,1.42.02,2.15,0,.33,0,.65-.02.96-.03,0-.25-.03-.52-.07-.8-.05-.31-.14-.6-.28-.87-.14-.27-.33-.49-.58-.66-.24-.17-.56-.26-.96-.26-.37,0-.69.09-.95.26-.26.18-.48.4-.65.66-.17.27-.3.56-.39.88-.08.29-.13.55-.16.79Z"/>
          </g>
          <g>
            <path class="cls-4" d="M61.33,33.71c.16-.16.35-.24.58-.24s.42.08.58.24c.16.16.24.36.24.58s-.08.42-.24.58c-.16.16-.36.24-.58.24s-.42-.08-.58-.24c-.16-.16-.24-.36-.24-.58s.08-.42.24-.58ZM61.3,38.62c-.02-.54-.05-1.03-.11-1.5.3.05.55.08.73.08s.43-.03.73-.08c-.05.47-.08.96-.1,1.5-.02.54-.02,1.05-.02,1.53v1.69c0,.49,0,1,.02,1.53.02.53.05,1.02.1,1.45-.25-.02-.49-.03-.73-.03s-.48.01-.73.03c.06-.43.1-.92.11-1.45.02-.54.03-1.05.03-1.53v-1.69c0-.49,0-1-.03-1.53Z"/>
            <path class="cls-4" d="M61.05,44.95l.02-.14c.06-.42.09-.91.11-1.44.02-.52.03-1.03.03-1.53v-1.69c0-.5,0-1.01-.03-1.53-.02-.54-.05-1.03-.11-1.49l-.02-.16.16.03c.3.05.54.08.71.08s.41-.02.71-.08l.15-.03-.02.16c-.05.47-.08.97-.1,1.49-.02.53-.03,1.05-.03,1.53v1.69c0,.48,0,1,.03,1.53.01.52.05,1.01.1,1.44l.02.14h-.14c-.52-.05-.92-.05-1.44-.01h-.15ZM61.91,44.68c.19,0,.39,0,.6.02-.04-.4-.07-.84-.09-1.32-.02-.53-.02-1.05-.02-1.54v-1.69c0-.49,0-1,.02-1.54.01-.47.04-.93.08-1.36-.24.04-.44.06-.6.06s-.35-.02-.6-.06c.05.42.08.87.1,1.36.02.52.02,1.04.02,1.54v1.69c0,.5,0,1.02-.02,1.54-.02.48-.05.92-.1,1.32.21-.01.41-.02.6-.02ZM61.91,35.23c-.26,0-.48-.09-.67-.28-.18-.18-.28-.41-.28-.66s.09-.48.28-.67c.18-.18.41-.28.66-.28s.48.09.67.28c.18.18.28.4.28.66s-.09.48-.28.67c-.18.18-.41.28-.66.28ZM61.91,33.58c-.2,0-.36.07-.5.21-.14.14-.21.3-.21.5s.07.36.21.5c.14.14.3.21.5.21s.36-.07.5-.21c.14-.14.21-.3.21-.5s-.07-.36-.21-.5c-.14-.14-.3-.21-.5-.21Z"/>
          </g>
          <g>
            <path class="cls-4" d="M66.54,34.94c-.03.41-.06.81-.07,1.21-.02.39-.03.79-.05,1.19.12,0,.34,0,.66,0,.32,0,.68-.02,1.06-.04-.01.03-.02.09-.02.18v.34c0,.08,0,.13.02.16-.14-.01-.29-.02-.44-.02-.15,0-.31,0-.49,0h-.79s-.03.22-.04.52c-.02.3-.03.66-.04,1.08-.01.42-.02.85-.02,1.31,0,.46,0,.86,0,1.22,0,.3,0,.6.02.89.02.29.07.55.15.79.09.23.22.42.39.56.17.14.42.21.75.21.08,0,.2-.01.35-.03.15-.02.27-.05.38-.08v.39c-.18.03-.39.07-.61.12-.22.05-.43.07-.64.07-.68,0-1.18-.17-1.51-.5-.32-.34-.48-.83-.48-1.48,0-.29,0-.61.02-.95.01-.34.02-.71.04-1.12.01-.41.03-.85.04-1.35,0-.49.02-1.04.02-1.65h-.52c-.09,0-.18,0-.28,0-.1,0-.2.01-.31.02.01-.07.02-.13.02-.19,0-.06.01-.12.01-.19,0-.06,0-.11-.01-.16,0-.06-.01-.11-.02-.16.49.03.84.04,1.07.04,0-.21-.02-.48-.02-.81,0-.32-.02-.66-.04-1l1.34-.57h.08Z"/>
            <path class="cls-4" d="M67.1,45.11c-.71,0-1.24-.18-1.59-.54-.35-.36-.52-.88-.52-1.56,0-.29,0-.61.01-.96.01-.34.02-.71.04-1.12.02-.41.03-.86.04-1.35,0-.46.01-.97.01-1.53h-.4c-.08,0-.18,0-.27,0-.09,0-.19.01-.3.02l-.16.02.03-.15c.01-.06.02-.12.02-.18,0-.06,0-.12,0-.18,0-.05,0-.1,0-.15,0-.05-.01-.1-.02-.15l-.03-.15h.15c.4.03.71.05.94.05,0-.19-.01-.42-.02-.69,0-.32-.02-.66-.04-1v-.08s1.46-.61,1.46-.61h.21v.13c-.04.41-.06.81-.08,1.2-.01.35-.03.71-.05,1.07.13,0,.31,0,.54,0,.32,0,.67-.02,1.05-.04h.17s-.05.15-.05.15c0,0,0,.03,0,.14v.34c0,.09,0,.12,0,.13l.06.17-.18-.02c-.14,0-.28-.02-.43-.02-.15,0-.31,0-.48,0h-.69c0,.07-.02.2-.03.41-.02.3-.03.66-.04,1.08-.01.42-.02.85-.02,1.3,0,.45,0,.86,0,1.22,0,.3,0,.6.02.89.02.28.06.53.15.75.08.21.2.38.35.51.15.12.38.18.67.18.08,0,.19-.01.33-.03.13-.02.26-.05.36-.08l.15-.05v.65l-.1.02c-.18.04-.38.07-.61.12-.23.05-.45.07-.67.07ZM64.7,37.83h.63v.12c0,.61,0,1.16-.02,1.65,0,.49-.02.94-.04,1.35-.02.41-.03.78-.04,1.12,0,.34-.01.66-.01.95,0,.61.15,1.09.45,1.4.3.31.78.47,1.42.47.2,0,.4-.02.62-.07.18-.04.36-.08.52-.11v-.14c-.08.02-.16.03-.25.05-.15.02-.27.04-.36.04-.35,0-.63-.08-.82-.24-.19-.15-.33-.36-.43-.61-.09-.24-.14-.52-.16-.83-.02-.29-.02-.6-.02-.9,0-.36,0-.76,0-1.22,0-.45.01-.89.02-1.31.01-.42.02-.78.04-1.09.01-.3.03-.48.04-.54l.02-.09h.89c.17,0,.34,0,.49,0,.1,0,.2,0,.3.01v-.43c-.33.02-.63.03-.92.03-.32,0-.55,0-.67,0h-.13v-.13c.03-.4.05-.79.06-1.19.01-.34.04-.7.06-1.06l-1.17.5c.02.31.03.62.04.92,0,.32.01.59.02.81v.12s-.12,0-.12,0c-.21,0-.53-.01-.93-.04,0,0,0,.02,0,.03,0,.05,0,.11,0,.17,0,.07,0,.13,0,.2,0,.02,0,.03,0,.04.06,0,.11,0,.17,0,.1,0,.19,0,.28,0Z"/>
          </g>
          <g>
            <path class="cls-4" d="M70.77,37.15c.41-.13.83-.19,1.27-.19.39,0,.75.06,1.07.17.32.12.6.28.83.49.23.21.41.46.54.76.13.3.2.63.2.98,0,.62-.01,1.23-.03,1.84-.02.61-.03,1.26-.03,1.94,0,.13,0,.27,0,.41,0,.15.03.28.07.39.04.11.1.21.19.28.08.08.2.11.37.11.05,0,.11,0,.17,0,.06,0,.11-.02.17-.06v.36c-.12.05-.27.1-.45.13-.18.03-.37.05-.59.05-.35,0-.62-.09-.81-.27-.19-.18-.3-.41-.33-.69-.39.39-.77.68-1.15.86-.38.18-.84.28-1.39.28-.27,0-.54-.04-.79-.11-.26-.08-.49-.2-.69-.38-.2-.17-.36-.38-.48-.63-.13-.24-.19-.52-.19-.84,0-.65.2-1.15.61-1.51.4-.36.96-.59,1.68-.71.58-.1,1.04-.18,1.37-.25.33-.07.57-.14.73-.22.16-.08.25-.16.28-.27.03-.1.05-.24.05-.4,0-.27-.03-.53-.1-.78-.06-.25-.17-.46-.31-.65-.14-.18-.33-.33-.55-.45-.23-.11-.5-.17-.83-.17-.43,0-.83.1-1.21.29-.37.19-.65.46-.83.81h-.18v-.84c.49-.37.94-.62,1.35-.75ZM72.79,40.95c-.24.04-.49.09-.73.14-.25.05-.49.11-.73.19-.24.07-.46.18-.65.31-.19.13-.34.29-.45.49-.11.2-.17.44-.17.75,0,.51.15.89.44,1.15.29.26.62.39.97.39.41,0,.78-.11,1.12-.34.34-.23.6-.49.78-.8l.06-2.43c-.18.06-.39.12-.64.16Z"/>
            <path class="cls-4" d="M70.87,45.11c-.28,0-.56-.04-.83-.12-.27-.08-.52-.21-.73-.4-.21-.19-.39-.41-.51-.66-.13-.26-.2-.56-.2-.89,0-.68.22-1.22.65-1.6.42-.37,1.01-.62,1.74-.74.56-.09,1.02-.18,1.36-.25.32-.07.55-.14.7-.21.13-.06.2-.13.22-.2.03-.09.04-.21.04-.36,0-.26-.03-.51-.09-.75-.06-.23-.15-.43-.29-.61-.13-.17-.29-.3-.51-.41-.21-.11-.47-.16-.78-.16-.41,0-.8.09-1.15.28-.35.18-.61.44-.79.76l-.03.06h-.37v-1.02l.05-.04c.49-.37.96-.63,1.38-.77.8-.25,1.7-.27,2.41-.02.35.12.63.29.87.51.24.22.43.49.57.8.14.31.21.66.21,1.03,0,.62-.01,1.24-.03,1.85-.02.59-.03,1.24-.03,1.94,0,.13,0,.26,0,.41,0,.13.03.25.07.35.04.1.09.18.16.24.08.08.24.1.44.08.05,0,.08-.01.12-.04l.18-.12v.65l-.07.03c-.13.06-.29.1-.47.14-.19.03-.39.05-.61.05-.38,0-.68-.1-.89-.3-.16-.15-.26-.33-.32-.54-.35.32-.69.57-1.03.73-.39.19-.88.29-1.44.29ZM71.65,37.52c.34,0,.64.06.88.18.24.12.44.28.59.48.15.2.26.43.33.69.07.26.1.53.1.81,0,.18-.02.32-.06.43-.04.13-.15.25-.34.34-.17.08-.41.16-.76.23-.35.08-.81.16-1.37.26-.69.11-1.23.34-1.62.68-.38.34-.57.8-.57,1.42,0,.29.06.56.17.78.11.23.27.43.46.59.18.16.4.28.64.35.24.07.5.11.76.11.53,0,.98-.09,1.34-.26.36-.18.74-.46,1.12-.84l.17-.17.03.24c.03.25.13.45.29.61.16.15.41.23.73.23.21,0,.4-.02.57-.05.14-.02.25-.06.35-.09v-.11s-.03,0-.05,0c-.06,0-.12,0-.18,0-.19,0-.34-.05-.45-.15-.09-.09-.16-.2-.22-.33-.05-.12-.08-.27-.08-.43,0-.15,0-.29,0-.42,0-.7,0-1.35.03-1.95.02-.61.03-1.23.03-1.84,0-.34-.06-.65-.19-.93-.12-.28-.3-.53-.51-.72-.22-.2-.47-.35-.79-.46-.66-.23-1.51-.21-2.26.03-.38.12-.81.36-1.26.69v.65c.19-.33.48-.59.84-.78.39-.2.82-.3,1.26-.3ZM71.46,44.47c-.39,0-.74-.14-1.05-.42-.32-.28-.47-.7-.47-1.24,0-.32.06-.59.19-.81.12-.21.28-.39.48-.53.2-.14.43-.24.68-.32.25-.08.5-.14.75-.19.25-.05.5-.1.74-.14.24-.05.44-.1.62-.16l.16-.06-.07,2.64-.02.03c-.19.32-.47.6-.82.83-.36.24-.76.36-1.19.36ZM73.31,40.95c-.15.04-.31.08-.5.11-.24.04-.49.09-.73.14-.24.04-.48.11-.72.18-.23.07-.43.17-.62.29-.17.12-.31.27-.42.45-.1.18-.15.41-.15.69,0,.47.13.83.4,1.06.27.24.56.36.89.36.38,0,.74-.11,1.06-.32.31-.21.56-.45.73-.73l.06-2.23Z"/>
          </g>
          <g>
            <path class="cls-4" d="M77.17,36.07c0-.43-.01-.86-.02-1.28,0-.42-.02-.82-.04-1.21-.01-.38-.03-.71-.05-.98.3.05.55.08.73.08s.43-.03.73-.08c-.02.27-.04.6-.06.98-.02.38-.03.79-.04,1.21-.01.42-.02.85-.03,1.28,0,.43,0,.83,0,1.2v2.96c0,.21.07.31.2.31.09,0,.18-.04.28-.11.1-.07.22-.16.35-.26.1-.08.26-.22.49-.44.23-.22.49-.47.78-.75.29-.28.58-.59.88-.92.31-.32.58-.63.83-.92.22.05.42.08.62.08.12,0,.24,0,.36-.02.12-.02.27-.03.45-.06-.68.55-1.33,1.09-1.96,1.63-.62.54-1.22,1.08-1.78,1.63.62.75,1.25,1.49,1.91,2.24.66.75,1.32,1.48,2,2.2-.18-.02-.35-.03-.49-.03h-.82c-.14,0-.29.01-.44.03-.24-.27-.51-.59-.81-.95-.3-.36-.6-.72-.9-1.08-.3-.36-.58-.69-.85-1-.27-.31-.5-.57-.7-.78-.03-.04-.07-.08-.11-.12-.04-.03-.09-.05-.13-.05-.11,0-.16.07-.16.2v.97c0,.48,0,.96.03,1.42.02.46.06.92.11,1.39-.25-.02-.49-.03-.73-.03s-.48.01-.73.03c.02-.25.04-.56.05-.94.02-.38.03-.78.04-1.2.01-.42.02-.85.02-1.28,0-.43,0-.83,0-1.2v-2.94c0-.37,0-.77,0-1.2Z"/>
            <path class="cls-4" d="M84.1,44.97l-.31-.03c-.19-.02-.35-.03-.48-.03h-.82c-.13,0-.27,0-.42.03h-.06s-.04-.04-.04-.04c-.24-.27-.51-.59-.81-.95l-.11-.14c-.26-.32-.53-.63-.79-.94-.3-.35-.58-.69-.85-1-.27-.32-.51-.58-.69-.78-.03-.04-.06-.07-.1-.1-.03-.02-.05-.02-.06-.02-.03,0-.05,0-.05.08v.97c0,.48,0,.96.03,1.41.02.45.06.92.11,1.38l.02.14h-.14c-.53-.05-.92-.05-1.44-.01h-.14s.01-.13.01-.13c.02-.25.04-.56.05-.93.02-.38.03-.78.04-1.2.01-.42.02-.85.02-1.28,0-.43,0-.83,0-1.2v-2.94c0-.37,0-.76,0-1.2,0-.43-.01-.86-.02-1.28-.01-.42-.02-.82-.04-1.21-.01-.38-.03-.71-.05-.98v-.15s.14.03.14.03c.29.05.53.08.71.08s.42-.03.71-.08l.15-.03v.15c-.03.26-.06.58-.07.97-.02.38-.03.79-.04,1.21-.01.42-.02.85-.02,1.28,0,.43,0,.83,0,1.2v2.96c0,.19.06.19.08.19.06,0,.13-.03.21-.09.1-.08.22-.16.35-.26.07-.05.21-.17.48-.43.23-.21.49-.47.78-.75.28-.28.57-.58.88-.91.29-.31.57-.62.82-.92l.05-.06.07.02c.34.08.63.09.93.05.12-.02.27-.04.46-.06l.4-.05-.31.25c-.68.55-1.34,1.1-1.95,1.63-.61.52-1.17,1.04-1.69,1.55.6.72,1.22,1.44,1.83,2.15.65.75,1.33,1.48,2,2.2l.22.23ZM78.54,40.73c.07,0,.13.02.2.07.06.04.1.09.14.14.18.19.41.45.69.77.27.31.56.65.85,1.01.26.31.52.63.79.94l.11.14c.29.34.54.64.77.9.14-.02.27-.02.39-.02h.82c.06,0,.13,0,.2,0-.61-.65-1.21-1.32-1.8-1.99-.64-.73-1.29-1.49-1.91-2.24l-.07-.08.08-.08c.54-.53,1.14-1.09,1.78-1.64.52-.45,1.07-.91,1.64-1.37-.02,0-.03,0-.05,0-.31.04-.61.03-.95-.04-.24.28-.51.58-.79.87-.32.34-.61.64-.89.92-.29.29-.55.54-.78.76-.22.21-.4.36-.5.45-.13.1-.25.18-.35.26-.12.09-.24.14-.35.14-.09,0-.31-.04-.31-.42v-2.96c0-.37,0-.77,0-1.2,0-.43.01-.86.03-1.28.01-.42.03-.83.04-1.21.02-.32.03-.6.05-.83-.24.04-.44.05-.6.05s-.36-.02-.6-.05c.02.24.03.52.04.84.02.38.03.79.04,1.21.01.42.02.85.02,1.28,0,.43,0,.83,0,1.2v2.94c0,.37,0,.77,0,1.2,0,.43-.01.86-.02,1.28,0,.42-.02.82-.04,1.2-.01.31-.03.58-.04.81.43-.03.77-.03,1.2,0-.05-.42-.08-.84-.1-1.25-.02-.46-.03-.94-.03-1.42v-.97c0-.23.14-.31.28-.31Z"/>
          </g>
          <g>
            <path class="cls-4" d="M84.86,40.91c.02-.41.02-.81.02-1.21,0-.38,0-.79,0-1.23,0-.44-.01-.89-.02-1.35.27.05.5.08.69.08.17,0,.4-.03.67-.08-.06.65-.1,1.36-.13,2.14-.03.77-.04,1.57-.04,2.38,0,.56.05.99.15,1.29.1.3.22.52.36.67.15.17.34.32.58.43.23.11.51.17.82.17.45,0,.83-.1,1.14-.3.3-.2.52-.45.67-.74.08-.18.14-.34.18-.47.04-.13.08-.3.1-.52.03-.22.04-.51.05-.88,0-.37,0-.87,0-1.51v-1.37c0-.24,0-.46,0-.68,0-.22-.01-.42-.02-.62.12.02.23.04.34.05.11.02.22.02.34.02s.23,0,.34-.02c.11-.02.21-.03.32-.05-.05.85-.08,1.66-.09,2.44-.01.78-.02,1.61-.02,2.49,0,.49,0,.96.02,1.43.01.47.03.91.05,1.35-.22-.02-.43-.03-.63-.03s-.41.01-.63.03c0-.1.02-.2.02-.31,0-.11,0-.22,0-.34v-.7h-.03c-.28.52-.65.9-1.09,1.15-.44.24-.92.36-1.44.36-.84,0-1.51-.23-1.99-.67-.48-.45-.72-1.09-.72-1.94,0-.57,0-1.06.02-1.47Z"/>
            <path class="cls-4" d="M87.55,45.11c-.87,0-1.57-.24-2.07-.7-.5-.47-.76-1.15-.76-2.03,0-.57,0-1.07.02-1.47.02-.42.02-.82.02-1.2s0-.79,0-1.23c0-.44-.01-.89-.02-1.35v-.15s.14.03.14.03c.27.05.49.08.66.08.16,0,.37-.02.65-.08l.15-.03v.15c-.07.65-.11,1.37-.14,2.13-.03.77-.04,1.57-.04,2.38,0,.55.05.97.14,1.26.1.28.21.49.33.63.14.16.32.3.54.41.21.1.47.16.77.16.43,0,.79-.09,1.07-.28.28-.19.5-.42.63-.69.07-.17.13-.33.17-.46.04-.12.08-.29.1-.5.03-.22.04-.51.05-.86,0-.37,0-.87,0-1.51v-1.37c0-.24,0-.46,0-.68,0-.22-.01-.42-.02-.61v-.15s.14.03.14.03c.12.02.23.04.33.05.2.03.44.03.64,0,.1-.01.21-.03.32-.05l.15-.03v.15c-.06.83-.09,1.65-.1,2.44,0,.78-.01,1.61-.01,2.49,0,.49,0,.96.01,1.42.01.46.02.91.05,1.34v.14s-.13-.01-.13-.01c-.46-.05-.78-.05-1.24,0h-.14s.01-.13.01-.13c.01-.1.02-.2.02-.3,0-.11,0-.22,0-.34v-.33c-.26.38-.58.68-.94.88-.46.25-.97.38-1.5.38ZM84.98,37.26c0,.41.02.81.02,1.2,0,.45,0,.86,0,1.24s0,.79-.02,1.21c-.02.4-.02.89-.02,1.46,0,.8.23,1.43.68,1.85.46.43,1.1.64,1.91.64.5,0,.96-.12,1.39-.35.42-.23.77-.6,1.04-1.1l.03-.06h.22v.81c0,.12,0,.24,0,.35,0,.06,0,.12-.01.18.36-.03.64-.03,1.01,0-.02-.39-.03-.8-.04-1.22-.01-.46-.02-.94-.02-1.43,0-.88,0-1.71.02-2.49,0-.74.04-1.51.08-2.3-.06.01-.12.02-.18.03-.23.03-.49.03-.71,0-.07,0-.13-.02-.2-.03,0,.15.01.31.02.48,0,.22,0,.45,0,.68v1.37c0,.64,0,1.14,0,1.51,0,.36-.02.66-.05.89-.03.22-.07.41-.11.54-.05.13-.11.29-.18.48-.15.32-.39.58-.71.79-.32.21-.73.32-1.2.32-.33,0-.63-.06-.87-.18-.25-.12-.45-.28-.61-.46-.15-.16-.27-.39-.38-.71-.1-.31-.15-.76-.15-1.33,0-.81.02-1.61.04-2.38.02-.7.06-1.37.11-1.99-.22.04-.39.05-.54.05-.16,0-.34-.02-.56-.05Z"/>
          </g>
          <g>
            <path class="cls-4" d="M106.53,35.4c0-.83-.04-1.41-.08-1.72.12.02.23.04.34.05.11.02.22.02.32.02.14,0,.3-.03.49-.08-.03.38-.07.83-.1,1.35-.03.53-.06,1.09-.08,1.69-.02.6-.04,1.22-.07,1.85-.02.63-.04,1.25-.05,1.84-.01.72-.12,1.37-.33,1.95-.21.57-.51,1.06-.9,1.46-.39.4-.87.7-1.44.91-.57.21-1.22.31-1.96.31-1.62,0-2.8-.37-3.54-1.1-.74-.73-1.1-1.9-1.1-3.49,0-.51.01-.96.04-1.35.03-.4.04-.8.04-1.21,0-.91,0-1.71-.03-2.42-.02-.7-.04-1.3-.06-1.78.13.02.27.04.42.05.15.02.29.02.42.02.12,0,.24,0,.35-.02.11-.01.23-.03.35-.05-.02.24-.04.55-.06.93-.02.38-.04.82-.06,1.31-.02.48-.04,1.01-.05,1.57-.01.56-.02,1.15-.02,1.75,0,.37,0,.75.02,1.14.01.4.05.78.11,1.15.06.38.17.73.32,1.07.15.34.35.64.62.89.27.25.61.46,1.02.6.41.15.92.22,1.53.22s1.09-.09,1.5-.26c.41-.17.74-.4,1-.68.26-.28.46-.61.61-.97.15-.37.25-.75.32-1.15.06-.4.1-.8.11-1.2.01-.4.02-.77.02-1.1,0-1.54,0-2.72-.02-3.55Z"/>
            <path class="cls-4" d="M102.68,45.16c-1.65,0-2.87-.38-3.62-1.14-.76-.75-1.14-1.96-1.14-3.57,0-.51.01-.97.04-1.36.03-.39.04-.79.04-1.2,0-.93,0-1.72-.03-2.41-.02-.7-.04-1.3-.06-1.78v-.14s.14.02.14.02c.13.02.26.04.41.05.28.03.51.03.74,0,.1-.01.21-.03.31-.05l.19-.03v.15c-.04.24-.06.55-.08.93-.02.38-.04.82-.06,1.31-.02.48-.03,1.01-.05,1.57-.01.56-.01,1.14-.01,1.75,0,.36,0,.75.01,1.14.01.38.05.76.11,1.13.06.36.17.71.31,1.04.14.32.34.61.6.85.26.24.59.44.98.58.4.14.9.21,1.49.21s1.06-.08,1.46-.25c.39-.17.71-.38.96-.65.25-.27.45-.58.59-.94.14-.36.25-.74.31-1.13.06-.39.1-.79.11-1.19.01-.4.02-.77.02-1.1,0-1.48,0-2.68-.02-3.55,0-.82-.04-1.4-.08-1.7l-.02-.16.23.04c.09.01.18.03.27.04.23.04.43.04.76-.05l.16-.04-.02.17c-.03.38-.07.83-.1,1.35-.03.52-.06,1.09-.08,1.69l-.07,1.85c-.02.63-.04,1.25-.05,1.84-.01.73-.13,1.4-.34,1.98-.21.59-.53,1.09-.93,1.5-.4.41-.9.73-1.48.94-.58.21-1.25.31-2,.31ZM98.15,33.82c.02.46.04,1.01.06,1.64.02.69.03,1.49.03,2.42,0,.41-.01.82-.04,1.22-.03.39-.04.84-.04,1.35,0,1.55.36,2.7,1.07,3.41.71.71,1.87,1.07,3.46,1.07.72,0,1.37-.1,1.92-.3.55-.2,1.02-.5,1.39-.88.38-.39.67-.87.88-1.42.2-.56.31-1.2.33-1.91.01-.6.03-1.21.05-1.85l.02-.63c.02-.42.03-.82.05-1.22.02-.6.05-1.16.08-1.69.03-.45.06-.85.08-1.19-.28.06-.48.05-.7.02-.06,0-.12-.02-.19-.03.03.34.05.85.06,1.58.01.87.02,2.07.02,3.56,0,.33,0,.7-.02,1.11-.01.4-.05.81-.12,1.21-.06.41-.17.8-.32,1.18-.15.38-.36.72-.63,1.01-.27.29-.62.53-1.04.71-.42.18-.94.27-1.55.27s-1.14-.07-1.56-.23c-.43-.15-.78-.36-1.06-.63-.28-.26-.5-.58-.65-.93-.15-.35-.26-.72-.32-1.1-.07-.38-.11-.77-.12-1.17-.01-.4-.02-.78-.02-1.15,0-.61,0-1.19.01-1.75,0-.56.03-1.09.05-1.58.02-.49.04-.92.06-1.31.02-.31.04-.57.05-.78-.07.01-.14.02-.2.03-.24.04-.5.03-.8,0-.1,0-.19-.02-.28-.03Z"/>
          </g>
          <g>
            <path class="cls-4" d="M114.85,38.42c-.31-.42-.75-.62-1.3-.62-.76,0-1.31.23-1.66.7-.35.47-.53,1.12-.53,1.96v1.38c0,.49,0,1,.02,1.53.02.54.05,1.02.11,1.45-.25-.02-.49-.03-.73-.03s-.48.01-.73.03c.05-.43.09-.92.1-1.45.02-.54.03-1.05.03-1.53v-1.69c0-.49,0-1-.03-1.53s-.05-1.04-.1-1.5c.3.05.54.08.73.08.09,0,.18,0,.28-.02.1-.02.23-.03.36-.06-.03.43-.05.87-.05,1.3h.03c.3-.47.66-.83,1.08-1.08.42-.25.92-.38,1.51-.38.3,0,.61.04.91.13.31.09.58.23.84.45.25.21.45.5.6.86.16.36.24.83.24,1.39,0,.47-.01.94-.03,1.44-.02.49-.03,1.01-.03,1.56v1.05c0,.17,0,.35,0,.51,0,.17.01.33.02.48-.22-.02-.44-.03-.68-.03s-.45.01-.66.03c.02-.56.04-1.14.07-1.74.03-.6.04-1.21.04-1.84v-.99c0-.81-.16-1.43-.47-1.84Z"/>
            <path class="cls-4" d="M116.68,44.95h-.14c-.45-.05-.87-.05-1.32-.01h-.13s0-.12,0-.12c.02-.56.04-1.14.07-1.74.03-.59.04-1.21.04-1.83v-.99c0-.78-.15-1.38-.45-1.77-.29-.39-.68-.58-1.2-.58-.72,0-1.24.21-1.57.65-.33.44-.5,1.08-.5,1.89v1.38c0,.48,0,1,.02,1.53.02.53.05,1.01.11,1.44l.02.14h-.14c-.52-.05-.91-.05-1.44-.01h-.14s.02-.13.02-.13c.05-.43.09-.92.1-1.44.02-.53.02-1.05.02-1.53v-1.69c0-.48,0-1-.02-1.53-.02-.52-.05-1.02-.1-1.49l-.02-.16.15.03c.29.05.53.08.71.08.08,0,.16,0,.26-.02l.51-.08v.15c-.03.32-.05.64-.05.96.27-.36.59-.64.94-.85.44-.26.96-.4,1.57-.4.31,0,.63.04.95.13.32.09.62.25.88.47.26.22.47.53.64.9.16.38.24.86.24,1.44,0,.44,0,.91-.03,1.44-.02.47-.03.98-.03,1.56v1.05c0,.17,0,.34,0,.51,0,.17.02.32.02.47v.14ZM110.17,37.25c.04.43.08.88.09,1.36.02.53.02,1.05.02,1.54v1.69c0,.48,0,1-.02,1.54-.01.47-.04.92-.09,1.32.43-.02.77-.02,1.19,0-.05-.4-.08-.85-.09-1.32-.02-.53-.03-1.05-.03-1.54v-1.38c0-.86.19-1.55.55-2.03.37-.49.96-.75,1.76-.75.59,0,1.05.23,1.39.67.33.43.49,1.08.49,1.91v.99c0,.63-.01,1.25-.04,1.84-.02.55-.04,1.08-.06,1.6.38-.02.73-.02,1.09,0,0-.11-.01-.23-.02-.35,0-.17,0-.34,0-.51v-1.05c0-.58,0-1.09.03-1.57.02-.52.03-.99.03-1.43,0-.54-.07-.99-.22-1.34-.15-.34-.34-.62-.57-.82-.24-.2-.5-.34-.79-.42-.3-.08-.6-.13-.88-.13-.56,0-1.05.12-1.45.37-.4.24-.75.59-1.05,1.04l-.03.05h-.21v-.12c0-.38.01-.77.04-1.16l-.22.03c-.11.02-.21.02-.3.02-.16,0-.36-.02-.6-.06Z"/>
          </g>
          <g>
            <path class="cls-4" d="M119.17,33.71c.16-.16.36-.24.58-.24s.42.08.58.24c.16.16.24.36.24.58s-.08.42-.24.58c-.16.16-.36.24-.58.24s-.42-.08-.58-.24c-.16-.16-.24-.36-.24-.58s.08-.42.24-.58ZM119.14,38.62c-.02-.54-.05-1.03-.11-1.5.3.05.55.08.73.08s.43-.03.73-.08c-.05.47-.08.96-.1,1.5-.02.54-.02,1.05-.02,1.53v1.69c0,.49,0,1,.02,1.53.02.53.05,1.02.1,1.45-.25-.02-.49-.03-.73-.03s-.48.01-.73.03c.06-.43.1-.92.11-1.45.02-.54.03-1.05.03-1.53v-1.69c0-.49,0-1-.03-1.53Z"/>
            <path class="cls-4" d="M118.89,44.95l.02-.14c.06-.42.1-.91.11-1.44.02-.52.03-1.03.03-1.53v-1.69c0-.5,0-1.01-.03-1.53-.02-.54-.05-1.03-.11-1.49l-.02-.16.16.03c.3.05.53.08.71.08s.41-.02.71-.08l.15-.03-.02.16c-.05.47-.08.97-.1,1.49-.02.53-.02,1.05-.02,1.53v1.69c0,.48,0,1,.02,1.53.02.52.05,1.01.1,1.44l.02.14h-.14c-.53-.05-.92-.05-1.44-.01h-.15ZM119.76,44.68c.19,0,.38,0,.6.02-.04-.4-.07-.84-.09-1.32-.02-.53-.02-1.05-.02-1.54v-1.69c0-.49,0-1,.02-1.54.01-.47.04-.93.08-1.36-.24.04-.44.06-.6.06s-.35-.02-.6-.06c.05.42.08.87.1,1.36.02.52.03,1.04.03,1.54v1.69c0,.5,0,1.02-.03,1.54-.02.48-.05.92-.1,1.32.21-.01.41-.02.6-.02ZM119.76,35.23c-.26,0-.48-.09-.67-.28-.18-.18-.28-.41-.28-.66s.09-.48.28-.67c.18-.18.41-.28.67-.28s.48.09.66.28c.18.18.28.4.28.66s-.09.48-.28.67c-.18.18-.41.28-.66.28ZM119.76,33.58c-.2,0-.36.07-.5.21-.14.14-.21.3-.21.5s.07.36.21.5c.14.14.3.21.5.21s.36-.07.5-.21c.14-.14.21-.3.21-.5s-.07-.36-.21-.5c-.14-.14-.3-.21-.5-.21Z"/>
          </g>
          <g>
            <path class="cls-4" d="M123.68,41c-.51-1.28-1.05-2.57-1.65-3.88.14.02.27.04.41.05.13.02.26.02.4.02.12,0,.24,0,.36-.02.12-.02.24-.03.36-.05.34,1.07.7,2.12,1.1,3.16.4,1.03.84,2.09,1.32,3.17.21-.44.43-.92.64-1.44.21-.51.42-1.04.64-1.6.21-.55.42-1.1.62-1.66.2-.55.4-1.1.59-1.63.19.05.36.08.5.08s.31-.03.5-.08c-.58,1.31-1.16,2.6-1.72,3.88-.56,1.28-1.08,2.55-1.54,3.82-.16-.02-.33-.03-.5-.03s-.35.01-.52.03c-.49-1.27-1-2.55-1.5-3.82Z"/>
            <path class="cls-4" d="M126.28,44.95h-.09c-.34-.05-.64-.05-1-.01h-.09s-.03-.07-.03-.07c-.5-1.27-1-2.55-1.5-3.82-.5-1.27-1.05-2.57-1.64-3.87l-.09-.2.21.03c.14.02.27.04.4.05.23.03.48.04.73,0,.12-.02.23-.03.35-.05l.1-.02.03.1c.33,1.05.69,2.1,1.09,3.15.36.95.77,1.94,1.22,2.93.18-.38.36-.78.53-1.2.19-.47.4-.99.63-1.6.21-.55.42-1.1.61-1.66l.02-.07c.19-.53.38-1.05.57-1.56l.04-.1.1.03c.19.05.35.08.47.08s.28-.02.47-.08l.24-.06-.1.22c-.59,1.31-1.16,2.6-1.72,3.87-.56,1.26-1.07,2.54-1.54,3.82l-.03.09ZM122.22,37.27c.56,1.24,1.08,2.48,1.56,3.69.49,1.25.98,2.5,1.47,3.74.31-.03.57-.03.87,0,.46-1.25.97-2.51,1.51-3.75.53-1.21,1.07-2.43,1.62-3.66-.27.05-.45.04-.73-.03-.18.48-.35.96-.53,1.46l-.02.07c-.2.56-.41,1.11-.62,1.66-.23.6-.44,1.13-.64,1.6-.21.5-.42.99-.64,1.44l-.11.23-.1-.23c-.49-1.08-.93-2.15-1.32-3.18-.39-1.01-.75-2.05-1.07-3.06-.09.01-.17.03-.26.04-.27.03-.54.03-.79,0-.06,0-.13-.02-.2-.03Z"/>
          </g>
          <g>
            <path class="cls-4" d="M130.99,38.09c.64-.76,1.56-1.14,2.78-1.14.57,0,1.07.09,1.49.27.42.18.77.42,1.05.72.28.3.49.65.63,1.05.14.4.2.83.2,1.28,0,.11,0,.22,0,.32,0,.1-.01.21-.02.32-.59-.01-1.17-.02-1.74-.03-.58,0-1.16-.02-1.74-.02-.36,0-.71,0-1.07.02-.35.01-.71.02-1.07.03,0,.05-.01.13-.01.24v.21c0,.42.06.82.19,1.19.12.37.31.68.54.95.24.27.53.48.88.63.35.15.75.23,1.21.23.22,0,.44-.03.67-.09.23-.06.45-.14.67-.24.22-.1.42-.22.61-.36.19-.14.35-.29.5-.45l.08.05-.1.8c-.33.26-.73.48-1.21.67-.48.18-.99.28-1.51.28-.59,0-1.12-.09-1.6-.27-.48-.18-.9-.44-1.25-.78-.35-.34-.63-.74-.82-1.21-.19-.47-.28-.97-.28-1.51,0-1.33.31-2.38.95-3.13ZM132.78,37.74c-.28.18-.51.41-.68.69-.18.28-.31.58-.41.91-.09.33-.15.64-.17.94.34.01.69.02,1.05.03.36.01.72.02,1.07.02s.72,0,1.09-.02c.37-.01.73-.02,1.08-.03,0-.29-.02-.6-.07-.93-.05-.33-.15-.63-.29-.91-.15-.28-.35-.52-.61-.7-.26-.18-.6-.28-1.02-.28s-.74.09-1.02.28Z"/>
            <path class="cls-4" d="M133.99,45.11c-.6,0-1.15-.09-1.64-.27-.5-.18-.93-.46-1.29-.81-.36-.35-.65-.77-.84-1.25-.19-.48-.29-1-.29-1.56,0-1.35.33-2.43.98-3.21.65-.78,1.62-1.18,2.86-1.18.59,0,1.11.09,1.53.28.44.18.8.43,1.09.74.29.31.51.68.65,1.09.14.41.21.85.21,1.32,0,.11,0,.22,0,.32,0,.11-.01.21-.02.32v.11s-1.86-.03-1.86-.03c-.92-.01-1.87-.03-2.8,0l-.96.03s0,.07,0,.13v.21c0,.41.06.79.18,1.15.12.35.29.66.52.91.23.25.51.46.84.61.33.15.72.22,1.16.22.21,0,.41-.03.64-.09.23-.06.44-.14.65-.23.21-.1.4-.21.59-.35.18-.14.34-.28.48-.44l.06-.07.23.14-.12.92-.04.03c-.33.27-.75.5-1.24.69-.5.19-1.02.28-1.55.28ZM133.76,37.07c-1.17,0-2.08.37-2.68,1.1-.61.73-.92,1.76-.92,3.06,0,.52.09,1.02.28,1.47.18.45.45.84.79,1.17.34.33.75.58,1.21.75.47.17.99.26,1.56.26.5,0,.99-.09,1.46-.27.45-.17.83-.38,1.14-.62l.07-.55c-.11.11-.23.21-.37.31-.2.15-.41.27-.63.38-.21.1-.44.19-.69.25-.24.06-.48.09-.7.09-.47,0-.89-.08-1.25-.25-.36-.16-.67-.39-.92-.66-.25-.28-.44-.61-.57-.99-.13-.38-.19-.79-.19-1.22v-.21c0-.12,0-.2.02-.26l.02-.09,1.16-.03c.94-.03,1.89-.02,2.81,0l1.63.03c0-.07,0-.14.01-.21,0-.1,0-.2,0-.31,0-.44-.07-.86-.2-1.25-.13-.38-.33-.72-.6-1.01-.27-.28-.61-.51-1.01-.69-.4-.17-.89-.26-1.44-.26ZM133.63,40.45c-.35,0-.7,0-1.07-.02-.36,0-.71-.02-1.05-.03h-.12s0-.13,0-.13c.02-.31.08-.63.18-.96.1-.35.24-.66.42-.94.18-.29.43-.53.71-.73.29-.2.66-.3,1.08-.3s.81.1,1.09.3c.27.19.49.44.65.74.15.29.25.61.3.95.05.33.07.65.07.94v.11h-.11c-.35.01-.7.02-1.07.03-.37.01-.73.02-1.09.02ZM131.64,40.17c.3.01.6.02.92.03.74.02,1.43.02,2.15,0,.33,0,.65-.02.96-.03,0-.25-.03-.52-.07-.8-.05-.31-.14-.61-.28-.87-.14-.27-.33-.49-.57-.66-.24-.17-.56-.26-.96-.26s-.7.09-.95.26c-.27.18-.48.4-.65.66-.17.26-.3.56-.39.88-.08.27-.13.53-.16.79Z"/>
          </g>
          <g>
            <path class="cls-4" d="M141.89,38.26c-.16-.05-.32-.08-.48-.08-.26,0-.49.06-.7.18-.21.12-.38.28-.52.48-.14.2-.25.44-.33.71-.07.28-.11.57-.11.89v1.79c0,.72,0,1.28,0,1.67,0,.39.02.69.06.93-.22-.02-.43-.03-.65-.03-.24,0-.46.01-.68.03.03-.37.05-.87.05-1.5,0-.63,0-1.41,0-2.33v-.52c0-.42,0-.91,0-1.46,0-.55-.02-1.18-.05-1.9.12.02.23.04.34.06.11.01.22.02.34.02.1,0,.2,0,.31-.02.11-.02.22-.03.34-.06-.04.39-.07.7-.07.93,0,.23,0,.44,0,.65l.03.02c.64-1.17,1.35-1.76,2.14-1.76.1,0,.18,0,.25.01.07.01.16.04.27.08-.05.13-.09.33-.1.59,0,.27-.02.51-.02.72l-.11.08c-.05-.06-.16-.13-.32-.18Z"/>
            <path class="cls-4" d="M139.96,44.95h-.15c-.48-.06-.87-.05-1.3-.01h-.14s.01-.13.01-.13c.03-.36.05-.87.05-1.49,0-.63,0-1.41,0-2.33v-.52c0-.42,0-.91,0-1.46,0-.55-.02-1.18-.05-1.89v-.15s.14.03.14.03c.12.02.23.04.33.06.19.02.37.03.61,0,.1-.02.22-.04.33-.06l.15-.03-.02.16c-.04.37-.06.68-.07.91,0,.1,0,.19,0,.28.61-.99,1.3-1.48,2.05-1.48.1,0,.19,0,.27.01.08.01.18.04.29.08l.11.04-.05.11c-.05.12-.08.3-.09.55,0,.27-.02.5-.02.72v.06l-.25.18-.07-.08s-.08-.08-.26-.14c-.38-.13-.78-.09-1.08.09-.19.11-.35.26-.48.45-.13.19-.24.42-.31.68-.07.27-.11.56-.11.86v1.79c0,.72,0,1.28,0,1.66,0,.41.02.7.05.92l.02.14ZM138.62,37.25c.03.65.04,1.24.05,1.76,0,.55,0,1.04,0,1.46v.52c0,.92,0,1.7,0,2.33,0,.56-.02,1.02-.04,1.37.35-.02.69-.03,1.06,0-.02-.21-.03-.47-.04-.8,0-.38,0-.94,0-1.67v-1.79c0-.32.04-.63.12-.92.08-.29.2-.54.34-.75.15-.21.34-.39.56-.51.36-.21.83-.26,1.27-.11.11.04.21.08.28.13,0-.19,0-.41.02-.65,0-.21.03-.38.06-.52-.05-.02-.1-.03-.14-.03-.06,0-.14-.01-.23-.01-.74,0-1.43.57-2.04,1.69l-.06.1-.2-.1v-.07c0-.21,0-.42,0-.65,0-.21.02-.47.06-.78-.06,0-.13.02-.19.03-.27.04-.47.03-.68,0-.06-.01-.13-.02-.2-.03Z"/>
          </g>
          <g>
            <path class="cls-4" d="M143.75,43.69c.11.13.25.25.41.37.16.11.33.21.54.28.2.08.41.12.64.12.21,0,.4-.03.59-.1.19-.06.36-.16.5-.27.15-.12.26-.27.35-.46.08-.19.13-.4.13-.63,0-.34-.09-.6-.28-.78-.19-.18-.42-.33-.71-.44-.28-.11-.59-.21-.92-.3-.33-.09-.64-.21-.92-.37-.28-.16-.52-.37-.71-.63-.19-.26-.28-.62-.28-1.08,0-.36.06-.68.18-.98.12-.3.29-.55.52-.77.23-.22.51-.39.84-.51.33-.13.72-.19,1.15-.19.4,0,.74.06,1.01.16.28.11.54.21.79.3-.09.16-.17.36-.24.6-.08.24-.12.42-.15.55h-.19c-.09-.26-.25-.49-.5-.7-.25-.21-.56-.31-.92-.31-.16,0-.33.03-.49.08-.16.05-.3.14-.44.24-.13.11-.24.25-.32.42-.09.17-.13.38-.13.62,0,.35.1.62.28.8.19.19.42.34.71.45.28.11.59.2.92.28.33.08.64.19.92.34.28.15.52.35.71.61.19.26.28.62.28,1.07,0,.32-.07.62-.2.93-.14.3-.33.58-.58.82-.25.24-.56.43-.91.57-.36.14-.76.2-1.22.2-.5,0-.91-.05-1.25-.15-.33-.1-.62-.21-.84-.34.06-.14.13-.33.2-.57.07-.24.11-.45.11-.61h.19c.05.11.14.23.25.36Z"/>
            <path class="cls-4" d="M145.09,45.11c-.52,0-.94-.05-1.28-.15-.34-.1-.63-.21-.87-.35l-.1-.05.05-.1c.06-.13.12-.31.2-.56.07-.23.1-.42.1-.57v-.12h.38l.03.07c.05.09.13.21.24.33.11.13.23.24.39.35.15.11.32.2.51.27.36.14.79.14,1.15.02.17-.06.33-.15.47-.26.13-.11.24-.25.31-.42.08-.17.12-.37.12-.58,0-.3-.08-.54-.25-.69-.18-.17-.4-.31-.67-.41-.28-.11-.58-.21-.91-.3-.34-.09-.67-.22-.95-.38-.3-.17-.55-.39-.74-.66-.2-.28-.3-.67-.3-1.15,0-.37.06-.71.19-1.03.13-.31.31-.59.55-.81.24-.23.53-.41.88-.54.35-.13.75-.19,1.19-.19.41,0,.77.06,1.05.17.28.11.54.21.78.29l.13.05-.07.12c-.08.15-.16.34-.23.58-.07.23-.12.41-.14.54l-.02.1h-.38l-.03-.08c-.08-.24-.23-.45-.46-.64-.22-.18-.51-.28-.85-.28-.15,0-.3.02-.45.07-.15.05-.28.12-.4.22-.12.1-.22.23-.29.38-.08.16-.12.34-.12.56,0,.31.08.56.25.72.18.18.39.32.67.42.28.11.58.2.91.28.35.08.67.2.95.35.29.15.55.37.75.65.2.28.31.66.31,1.14,0,.33-.07.66-.21.98-.14.32-.35.6-.61.86-.27.25-.59.45-.96.59-.36.14-.79.21-1.26.21ZM143.15,44.46c.2.1.45.2.72.28.32.09.73.14,1.22.14.44,0,.84-.07,1.17-.19.34-.13.63-.31.88-.55.24-.23.43-.49.56-.78.13-.29.19-.57.19-.88,0-.43-.09-.77-.26-1-.18-.25-.4-.44-.66-.58-.27-.14-.57-.25-.9-.33-.33-.08-.65-.18-.94-.29-.3-.12-.55-.27-.75-.48-.21-.21-.32-.51-.32-.89,0-.26.05-.48.14-.67.09-.19.21-.34.35-.46.14-.12.3-.21.47-.27.17-.06.35-.08.53-.08.39,0,.73.11,1,.33.24.2.41.42.51.67h.02c.03-.12.07-.28.13-.47.06-.19.12-.36.19-.5-.21-.08-.43-.16-.67-.25-.26-.1-.59-.16-.97-.16-.42,0-.79.06-1.11.18-.32.12-.59.28-.8.49-.21.2-.38.45-.49.73-.11.28-.17.6-.17.94,0,.43.09.77.26,1.01.18.24.4.44.67.59.27.15.57.27.9.35.34.09.65.19.94.31.3.12.55.27.74.46.21.2.32.49.32.86,0,.25-.05.48-.14.68-.09.2-.22.36-.38.5-.16.13-.34.23-.54.3-.41.14-.9.14-1.31-.02-.21-.08-.4-.18-.56-.3-.16-.12-.3-.24-.42-.38-.1-.11-.18-.22-.23-.32h-.01c-.01.15-.05.33-.11.53-.06.2-.11.36-.16.49Z"/>
          </g>
          <g>
            <path class="cls-4" d="M150.01,33.71c.16-.16.35-.24.58-.24s.42.08.58.24c.16.16.24.36.24.58s-.08.42-.24.58c-.16.16-.36.24-.58.24s-.42-.08-.58-.24c-.16-.16-.24-.36-.24-.58s.08-.42.24-.58ZM149.97,38.62c-.02-.54-.05-1.03-.11-1.5.3.05.55.08.73.08s.43-.03.73-.08c-.05.47-.09.96-.1,1.5-.02.54-.02,1.05-.02,1.53v1.69c0,.49,0,1,.02,1.53.01.53.05,1.02.1,1.45-.25-.02-.49-.03-.73-.03s-.48.01-.73.03c.06-.43.1-.92.11-1.45.02-.54.03-1.05.03-1.53v-1.69c0-.49-.01-1-.03-1.53Z"/>
            <path class="cls-4" d="M149.72,44.95l.02-.14c.06-.43.1-.91.11-1.44.02-.56.03-1.06.03-1.53v-1.69c0-.47,0-.97-.03-1.53-.02-.53-.06-1.03-.11-1.49l-.02-.16.16.03c.3.05.53.08.71.08s.41-.02.71-.08l.16-.03-.02.16c-.05.47-.09.97-.1,1.49-.02.53-.02,1.05-.02,1.53v1.69c0,.48,0,1,.02,1.53.01.52.05,1.01.1,1.44l.02.14h-.14c-.52-.05-.92-.05-1.44-.01h-.15ZM150.59,44.68c.19,0,.38,0,.6.02-.04-.4-.07-.84-.08-1.32-.02-.53-.02-1.05-.02-1.54v-1.69c0-.49,0-1,.02-1.54.01-.47.04-.93.08-1.36-.24.04-.44.06-.6.06s-.35-.02-.6-.06c.05.42.08.88.09,1.36.02.56.03,1.06.03,1.54v1.69c0,.48,0,.98-.03,1.54-.02.48-.05.92-.09,1.32.21-.01.41-.02.6-.02ZM150.59,35.23c-.26,0-.48-.09-.67-.28-.18-.18-.27-.4-.27-.66s.09-.48.28-.67c.18-.18.4-.28.66-.28s.48.09.67.28c.18.18.28.41.28.66s-.09.48-.28.66c-.18.19-.41.28-.67.28ZM150.59,33.58c-.2,0-.36.07-.5.21-.14.14-.21.3-.21.5s.07.36.21.5c.14.14.3.21.5.21s.36-.07.5-.21c.14-.14.21-.31.21-.5s-.07-.36-.21-.5c-.14-.14-.3-.21-.5-.21Z"/>
          </g>
          <g>
            <path class="cls-4" d="M155.22,34.94c-.03.41-.06.81-.07,1.21-.02.39-.04.79-.06,1.19.12,0,.34,0,.67,0,.32,0,.67-.02,1.06-.04-.01.03-.02.09-.02.18v.34c0,.08,0,.13.02.16-.14-.01-.29-.02-.44-.02-.15,0-.32,0-.49,0h-.8s-.02.22-.04.52c-.02.3-.03.66-.04,1.08-.01.42-.02.85-.02,1.31,0,.46,0,.86,0,1.22,0,.3,0,.6.02.89.02.29.07.55.16.79.08.23.22.42.39.56.17.14.42.21.75.21.09,0,.2-.01.35-.03.14-.02.27-.05.38-.08v.39c-.18.03-.39.07-.61.12-.22.05-.44.07-.64.07-.68,0-1.18-.17-1.51-.5-.32-.34-.48-.83-.48-1.48,0-.29,0-.61.01-.95,0-.34.02-.71.04-1.12.02-.41.03-.85.04-1.35,0-.49.02-1.04.02-1.65h-.52c-.09,0-.18,0-.28,0-.1,0-.2.01-.31.02.01-.07.02-.13.03-.19,0-.06,0-.12,0-.19,0-.06,0-.11,0-.16,0-.06-.01-.11-.03-.16.49.03.84.04,1.07.04-.01-.21-.02-.48-.02-.81,0-.32-.02-.66-.04-1l1.34-.57h.08Z"/>
            <path class="cls-4" d="M155.78,45.11c-.71,0-1.25-.18-1.59-.54-.34-.36-.52-.88-.52-1.56,0-.29,0-.61.02-.96,0-.25.02-.53.03-.82v-.3c.03-.41.04-.86.05-1.35,0-.46.01-.97.02-1.53h-.4c-.08,0-.18,0-.27,0-.1,0-.2.01-.3.02l-.15.02.02-.15c.01-.07.02-.13.02-.18,0-.06,0-.12,0-.18,0-.05,0-.1,0-.15,0-.05-.01-.1-.02-.15l-.03-.15h.15c.4.03.71.05.94.05,0-.19-.02-.42-.02-.69,0-.32-.02-.66-.04-1v-.08s1.46-.61,1.46-.61h.21v.13c-.05.45-.07.84-.08,1.2-.01.35-.03.71-.05,1.07.13,0,.31,0,.54,0,.32,0,.67-.02,1.05-.04h.18s-.06.16-.06.16c0,0,0,.03,0,.14v.34c0,.09,0,.12,0,.12l.06.17-.18-.02c-.14,0-.28-.02-.43-.02-.15,0-.31,0-.48,0h-.69c-.01.12-.02.31-.02.41-.02.3-.03.66-.04,1.08-.01.42-.02.85-.02,1.3,0,.45,0,.86,0,1.22,0,.32,0,.62.02.89.01.27.06.53.15.75.08.21.2.38.35.51.15.12.38.18.67.18.08,0,.19-.01.33-.03.14-.02.26-.05.36-.08l.15-.05v.65l-.1.02c-.18.04-.38.07-.6.12-.23.05-.45.07-.67.07ZM153.38,37.83h.63v.12c0,.61,0,1.16-.02,1.65,0,.49-.02.94-.04,1.35v.3c-.02.29-.03.57-.04.82,0,.34-.01.66-.01.95,0,.61.15,1.09.45,1.4.3.31.78.47,1.42.47.2,0,.4-.02.62-.07.19-.04.36-.08.52-.11v-.14c-.08.02-.16.03-.25.05-.15.02-.27.04-.37.04-.35,0-.63-.08-.82-.24-.19-.15-.33-.36-.42-.61-.09-.25-.15-.52-.16-.83-.01-.28-.02-.57-.02-.9,0-.36,0-.76,0-1.22,0-.45.01-.89.02-1.31.01-.42.02-.78.04-1.09.02-.37.03-.49.04-.54l.02-.09h.89c.17,0,.34,0,.49,0,.1,0,.2,0,.3.01v-.43c-.33.02-.64.03-.92.03-.33,0-.55,0-.67,0h-.12v-.13c.03-.4.05-.79.06-1.19.01-.32.03-.66.06-1.05l-1.17.5c.02.32.03.63.03.92,0,.32.01.59.02.8v.13s-.12,0-.12,0c-.21,0-.52-.01-.93-.04,0,0,0,.02,0,.03,0,.06,0,.12,0,.17,0,.07,0,.13,0,.19,0,.02,0,.03,0,.05.06,0,.11,0,.17,0,.1,0,.19,0,.28,0Z"/>
          </g>
          <g>
            <path class="cls-4" d="M159.85,43.7c-.19-.47-.39-.95-.61-1.47-.22-.51-.44-1.04-.66-1.57-.23-.53-.44-1.04-.64-1.51-.2-.47-.37-.89-.52-1.24-.15-.36-.27-.62-.34-.8.14.02.27.04.39.05.12.02.24.02.36.02s.24,0,.36-.02c.12-.02.25-.03.39-.05.33,1.04.71,2.07,1.12,3.08.41,1.02.84,2.07,1.3,3.15.45-.95.89-1.97,1.31-3.05.41-1.08.79-2.14,1.11-3.18.22.05.4.08.54.08s.32-.03.54-.08c-.07.15-.2.41-.37.77-.17.36-.37.79-.6,1.3-.23.5-.49,1.06-.76,1.67-.27.61-.56,1.24-.84,1.88-.29.65-.57,1.28-.85,1.91-.28.63-.54,1.23-.78,1.8-.24.57-.45,1.08-.62,1.54-.18.46-.31.82-.4,1.09-.22-.05-.4-.08-.55-.08s-.34.02-.55.08c.86-1.41,1.58-2.83,2.18-4.25-.12-.29-.27-.67-.46-1.13Z"/>
            <path class="cls-4" d="M157.89,49.27l.14-.24c.84-1.38,1.56-2.79,2.15-4.19l-.44-1.09c-.19-.47-.39-.96-.61-1.47-.17-.4-.34-.82-.52-1.23l-.14-.34c-.23-.53-.44-1.04-.64-1.51l-.55-1.29c-.14-.33-.25-.58-.32-.74l-.09-.2.21.03c.14.02.27.04.39.05.23.03.45.03.68,0,.12-.02.25-.03.39-.05h.1s.03.08.03.08c.33,1.03.71,2.06,1.12,3.07.35.87.74,1.83,1.2,2.9.41-.88.81-1.83,1.19-2.8.42-1.09.79-2.16,1.11-3.17l.03-.11.11.03c.21.05.38.08.51.08s.29-.02.51-.08l.25-.06-.11.23c-.07.15-.2.41-.36.77-.17.36-.37.79-.6,1.3l-.04.1c-.22.48-.46,1-.72,1.57-.28.61-.56,1.24-.84,1.88l-.85,1.91c-.3.67-.55,1.26-.78,1.8-.26.63-.46,1.11-.62,1.54-.18.45-.31.82-.39,1.09l-.03.1-.11-.02c-.21-.05-.38-.08-.52-.08s-.31.02-.53.08l-.27.06ZM158.69,48.89c.13,0,.29.02.47.06.09-.26.21-.6.37-1,.17-.42.36-.92.62-1.54.23-.54.48-1.13.78-1.8l.85-1.91c.29-.64.57-1.27.84-1.88.26-.57.5-1.1.72-1.57l.05-.1c.23-.5.43-.93.6-1.29.11-.23.19-.41.26-.56-.13.02-.23.03-.33.03-.12,0-.27-.02-.46-.06-.31.99-.67,2.02-1.08,3.08-.41,1.07-.85,2.1-1.31,3.06l-.11.24-.1-.24c-.49-1.18-.92-2.21-1.3-3.15-.4-.98-.77-1.99-1.09-2.99-.1.01-.2.03-.29.04-.25.03-.5.03-.75,0-.06,0-.12-.02-.18-.03.06.15.14.33.24.55l.55,1.29c.2.47.42.97.64,1.51l.14.34c.18.42.35.83.52,1.23.22.51.42,1,.61,1.47l.48,1.18-.02.05c-.57,1.34-1.25,2.7-2.05,4.03.12-.02.22-.03.31-.03Z"/>
          </g>
        </g>
      </g>
      <g>
        <g>
          <g>
            <g>
              <polygon class="cls-4" points="14.89 23.53 15.59 23.07 3.57 24.74 3.68 25.51 14.2 24.05 14.89 23.53"/>
              <polygon class="cls-4" points="10.5 26.92 11.01 26.46 4.66 29.31 4.98 30.01 9.94 27.79 10.5 26.92"/>
              <polygon class="cls-4" points="13.31 21.69 13.5 22.23 2.88 20.8 2.99 20.03 12.77 21.34 13.31 21.69"/>
              <polygon class="cls-4" points="9.32 18.02 9.66 18.72 4.55 16.39 4.88 15.69 8.24 17.22 9.32 18.02"/>
              <g>
                <path class="cls-4" d="M1.58,30.77c-.23-.55-.25-1.1-.06-1.66.23-.58.62-.99,1.16-1.23.55-.24,1.11-.26,1.68-.04.57.22.98.6,1.22,1.14.25.55.26,1.12.05,1.7-.22.56-.61.96-1.16,1.2-.55.24-1.11.26-1.69.05-.55-.23-.95-.61-1.21-1.16Z"/>
                <path class="cls-4" d="M.05,25.52c-.07-.59.06-1.13.4-1.62.38-.49.86-.78,1.46-.87.59-.08,1.13.06,1.62.43.49.37.78.84.87,1.44.08.59-.05,1.14-.42,1.64-.37.47-.85.75-1.44.84-.59.09-1.14-.05-1.64-.41-.46-.37-.75-.85-.84-1.44Z"/>
                <path class="cls-4" d="M.01,20.07c.09-.59.36-1.07.82-1.45.49-.38,1.04-.52,1.63-.44.6.08,1.08.36,1.45.84.38.48.52,1.02.45,1.61-.08.59-.36,1.09-.84,1.47-.48.35-1.02.5-1.61.42-.6-.08-1.09-.36-1.47-.84-.35-.48-.49-1.02-.43-1.62Z"/>
                <path class="cls-4" d="M1.46,14.8c.25-.54.64-.93,1.19-1.17.58-.22,1.14-.22,1.69.02.55.24.94.64,1.16,1.21.23.57.22,1.13-.01,1.68-.24.55-.64.95-1.21,1.18-.56.21-1.11.2-1.66-.03-.55-.24-.95-.64-1.19-1.21-.21-.56-.19-1.11.03-1.67Z"/>
              </g>
            </g>
            <g>
              <polygon class="cls-4" points="26.21 23.86 25.8 23.33 35.94 24.74 35.83 25.51 26.78 24.26 26.21 23.86"/>
              <polygon class="cls-4" points="30.06 27.52 29.97 27.07 34.85 29.31 34.53 30.01 31.73 28.73 30.06 27.52"/>
              <polygon class="cls-4" points="22.17 22.52 22.11 22.77 36.63 20.8 36.52 20.03 25.25 21.56 23.85 22.32 22.17 22.52"/>
              <polygon class="cls-4" points="27.01 19.94 26.93 20.18 34.96 16.39 34.63 15.69 29.36 18.17 28.46 19.01 27.01 19.94"/>
              <g>
                <path class="cls-4" d="M36.73,31.93c-.58.21-1.14.2-1.69-.05-.55-.24-.93-.65-1.16-1.2-.21-.58-.2-1.15.05-1.7.24-.54.65-.92,1.22-1.14.57-.22,1.13-.21,1.67.04.55.24.94.65,1.16,1.23.19.56.17,1.11-.06,1.66-.26.54-.66.93-1.21,1.16Z"/>
                <path class="cls-4" d="M38.61,26.96c-.5.36-1.05.5-1.64.41-.59-.08-1.07-.36-1.44-.84-.37-.5-.5-1.05-.42-1.64.09-.59.38-1.07.87-1.44.49-.37,1.03-.51,1.62-.43.59.09,1.08.38,1.45.87.34.49.47,1.03.4,1.62-.1.59-.38,1.07-.85,1.44Z"/>
                <path class="cls-4" d="M39.07,21.68c-.39.48-.88.76-1.47.84-.6.08-1.13-.07-1.61-.42-.49-.39-.77-.88-.84-1.47-.07-.59.07-1.13.45-1.61.37-.48.85-.77,1.45-.84.59-.08,1.14.07,1.64.44.46.38.73.86.82,1.45.07.6-.08,1.14-.42,1.62Z"/>
                <path class="cls-4" d="M38.09,16.47c-.24.57-.63.98-1.18,1.21-.55.24-1.11.25-1.67.03-.57-.24-.98-.63-1.21-1.18-.23-.55-.24-1.11-.01-1.68.22-.57.61-.97,1.17-1.21.55-.24,1.11-.24,1.69-.02.54.24.94.63,1.19,1.17.22.56.23,1.12.03,1.67Z"/>
              </g>
            </g>
          </g>
          <g>
            <g>
              <path class="cls-1" d="M19.5,25.32s0-.09,0-.13c0-1.2-.97-2.17-2.17-2.17-.12,0-.24.01-.36.03-.7-.12-1.67.13-2.58.74-.74.49-1.28,1.12-1.54,1.7-.58.06-1.28.36-1.92.88-.56.46-.96.99-1.17,1.5-.47.08-1.02.39-1.49.89-.38.4-.63.86-.74,1.26-.45.02-1.03.34-1.5.88-.38.45-.61.95-.65,1.36-.35.12-.74.41-1.05.83-.29.39-.46.8-.49,1.16-.27.15-.56.43-.77.8-.31.52-.41,1.06-.28,1.42-.29.13-.58.45-.78.88-.26.56-.27,1.12-.05,1.4-.27.12-.55.43-.73.84-.23.55-.2,1.1.05,1.32.22.23.75.27,1.29.07.42-.16.74-.42.87-.69.27.22.84.23,1.41,0,.43-.18.77-.46.91-.75.35.13.9.06,1.43-.23.37-.2.66-.48.83-.75.35-.03.77-.18,1.17-.45.43-.3.74-.67.87-1.02.42-.03.92-.23,1.38-.6.56-.45.9-1.01.94-1.46.41-.1.87-.33,1.29-.7.52-.45.85-.99.94-1.46.51-.19,1.07-.57,1.54-1.12.55-.62.87-1.31.96-1.89.6-.24,1.24-.76,1.76-1.48.82-1.13,1.07-2.4.66-3.08Z"/>
              <g>
                <rect class="cls-4" x="16.38" y="26.01" width=".4" height="3.39" transform="translate(-1.94 1.26) rotate(-4.1)"/>
                <g>
                  <polygon class="cls-4" points="14.05 28.21 14.26 31.17 14.66 31.14 14.44 28.18 14.05 28.21"/>
                  <rect class="cls-4" x="11.93" y="30.37" width=".4" height="2.56" transform="translate(-2.21 .94) rotate(-4.05)"/>
                  <polygon class="cls-4" points="9.63 32.57 9.85 35.53 10.25 35.5 10.03 32.54 9.63 32.57"/>
                  <rect class="cls-4" x="7.54" y="34.74" width=".4" height="2.8" transform="translate(-2.96 .76) rotate(-4.74)"/>
                  <polygon class="cls-4" points="5.21 36.93 5.32 39.01 5.72 38.99 5.61 36.91 5.21 36.93"/>
                </g>
                <rect class="cls-4" x="3.04" y="39.11" width=".4" height=".89" transform="translate(-2.99 .36) rotate(-4.36)"/>
              </g>
              <g>
                <rect class="cls-4" x="14.5" y="24.31" width=".4" height="3.38" transform="translate(-12.44 38.48) rotate(-85.22)"/>
                <g>
                  <polygon class="cls-4" points="11.2 28.27 14.16 28.52 14.19 28.13 11.23 27.88 11.2 28.27"/>
                  <polygon class="cls-4" points="9.41 30.49 11.96 30.71 11.99 30.31 9.44 30.1 9.41 30.49"/>
                  <rect class="cls-4" x="8.09" y="31.08" width=".4" height="2.97" transform="translate(-24.87 37.99) rotate(-85.01)"/>
                  <rect class="cls-4" x="5.97" y="33.35" width=".4" height="2.8" transform="translate(-29 37.68) rotate(-84.72)"/>
                  <rect class="cls-4" x="4.12" y="35.96" width=".4" height="2.07" transform="translate(-32.87 39.02) rotate(-86.46)"/>
                </g>
                <rect class="cls-4" x="2.51" y="38.76" width=".4" height=".89" transform="translate(-36.59 38.63) rotate(-85.22)"/>
              </g>
              <polygon class="cls-4" points="1.38 40.55 1.66 40.83 18.48 24.33 18.21 24.05 1.38 40.55"/>
            </g>
            <g>
              <path class="cls-1" d="M22.66,22.68s-.09,0-.13,0c-1.2,0-2.16.97-2.16,2.16,0,.12,0,.24.03.36-.12.7.14,1.68.74,2.58.49.74,1.12,1.28,1.7,1.54.06.58.36,1.29.88,1.92.46.56,1,.96,1.5,1.17.08.47.39,1.02.89,1.49.4.38.86.63,1.26.74.01.45.34,1.03.88,1.5.45.38.94.61,1.36.65.12.35.41.74.83,1.05.39.29.8.46,1.16.49.15.28.43.56.8.78.52.31,1.06.4,1.42.28.13.28.45.58.88.78.56.26,1.13.27,1.41.06.12.27.42.55.84.72.55.23,1.1.2,1.32-.05.23-.22.27-.75.07-1.29-.16-.42-.43-.74-.69-.87.22-.27.24-.84,0-1.41-.18-.43-.47-.76-.75-.9.13-.35.06-.9-.23-1.43-.2-.37-.47-.66-.75-.83-.03-.35-.18-.78-.45-1.17-.3-.43-.67-.74-1.02-.87-.03-.41-.24-.92-.6-1.38-.45-.56-1.01-.91-1.46-.94-.09-.41-.33-.87-.7-1.29-.45-.52-.99-.85-1.46-.95-.19-.51-.58-1.06-1.12-1.54-.62-.54-1.31-.87-1.89-.95-.24-.6-.76-1.24-1.48-1.76-1.13-.82-2.4-1.07-3.08-.66Z"/>
              <g>
                <polygon class="cls-4" points="23.34 25.52 23.36 25.92 26.74 25.68 26.71 25.28 23.34 25.52"/>
                <g>
                  <polygon class="cls-4" points="25.52 27.73 25.55 28.13 28.51 27.92 28.48 27.52 25.52 27.73"/>
                  <rect class="cls-4" x="27.71" y="29.85" width="2.56" height=".4" transform="translate(-2.08 2.16) rotate(-4.12)"/>
                  <rect class="cls-4" x="29.89" y="32.04" width="2.96" height=".4" transform="translate(-2.29 2.4) rotate(-4.22)"/>
                  <polygon class="cls-4" points="32.06 34.36 32.09 34.75 34.89 34.53 34.85 34.13 32.06 34.36"/>
                  <rect class="cls-4" x="34.26" y="36.51" width="2.07" height=".4" transform="translate(-1.76 1.78) rotate(-2.82)"/>
                </g>
                <polygon class="cls-4" points="36.43 38.77 36.46 39.17 37.34 39.11 37.31 38.71 36.43 38.77"/>
              </g>
              <g>
                <polygon class="cls-4" points="23 29.15 23.39 29.18 23.67 25.81 23.28 25.77 23 29.15"/>
                <g>
                  <rect class="cls-4" x="24.05" y="29.28" width="2.97" height=".4" transform="translate(-5.93 52.51) rotate(-85.3)"/>
                  <rect class="cls-4" x="26.46" y="31.28" width="2.55" height=".4" transform="translate(-5.94 56.49) rotate(-85.21)"/>
                  <rect class="cls-4" x="28.42" y="33.69" width="2.97" height=".4" transform="translate(-6.43 60.76) rotate(-85.07)"/>
                  <rect class="cls-4" x="30.68" y="35.81" width="2.8" height=".4" transform="translate(-6.77 64.58) rotate(-84.63)"/>
                  <rect class="cls-4" x="33.29" y="37.66" width="2.07" height=".4" transform="translate(-5.53 69.84) rotate(-86.54)"/>
                </g>
                <polygon class="cls-4" points="36.31 39.9 36.7 39.93 36.78 39.05 36.38 39.01 36.31 39.9"/>
              </g>
              <rect class="cls-4" x="29.62" y="20.57" width=".4" height="23.44" transform="translate(-14.08 30.11) rotate(-44.44)"/>
            </g>
            <g>
              <path class="cls-1" d="M20.02,20.22s0,.09,0,.13c0,1.19.97,2.16,2.16,2.16.12,0,.24-.01.36-.03.7.12,1.68-.13,2.58-.74.74-.49,1.28-1.11,1.54-1.7.58-.06,1.28-.36,1.92-.88.56-.46.97-1,1.17-1.5.47-.08,1.02-.39,1.49-.89.38-.4.63-.85.74-1.26.45-.02,1.03-.34,1.5-.88.38-.45.61-.94.65-1.36.35-.12.74-.41,1.05-.83.29-.38.46-.8.5-1.15.28-.16.56-.44.78-.8.31-.52.4-1.06.28-1.42.29-.13.58-.45.78-.88.26-.56.27-1.13.06-1.4.27-.12.54-.43.72-.84.23-.55.2-1.1-.05-1.32-.23-.23-.75-.27-1.29-.07-.42.16-.74.43-.87.69-.27-.22-.84-.23-1.4,0-.43.18-.76.46-.91.75-.35-.13-.89-.06-1.43.23-.37.21-.66.48-.82.75-.35.02-.78.18-1.17.45-.43.3-.74.67-.87,1.02-.41.03-.92.24-1.38.6-.56.45-.9,1.01-.94,1.46-.41.09-.87.33-1.29.7-.52.45-.85.99-.94,1.46-.52.19-1.07.57-1.54,1.12-.54.62-.87,1.31-.95,1.89-.6.24-1.24.76-1.76,1.48-.82,1.14-1.07,2.4-.66,3.08Z"/>
              <g>
                <rect class="cls-4" x="22.74" y="16.15" width=".4" height="3.39" transform="translate(-1.22 1.69) rotate(-4.12)"/>
                <g>
                  <rect class="cls-4" x="24.96" y="14.38" width=".4" height="2.97" transform="translate(-1.06 1.83) rotate(-4.07)"/>
                  <rect class="cls-4" x="27.19" y="12.62" width=".4" height="2.55" transform="translate(-.93 2) rotate(-4.12)"/>
                  <rect class="cls-4" x="29.37" y="10.02" width=".4" height="2.97" transform="translate(-.79 2.27) rotate(-4.34)"/>
                  <rect class="cls-4" x="31.58" y="8.01" width=".4" height="2.8" transform="translate(-.66 2.64) rotate(-4.7)"/>
                  <polygon class="cls-4" points="33.8 6.56 33.9 8.63 34.3 8.61 34.19 6.54 33.8 6.56"/>
                </g>
                <polygon class="cls-4" points="36.05 5.57 36.11 6.45 36.51 6.42 36.44 5.54 36.05 5.57"/>
              </g>
              <g>
                <polygon class="cls-4" points="23.11 19.6 26.49 19.88 26.52 19.49 23.14 19.21 23.11 19.6"/>
                <g>
                  <polygon class="cls-3" points="25.32 17.42 28.28 17.66 28.31 17.27 25.35 17.02 25.32 17.42"/>
                  <polygon class="cls-4" points="27.52 15.24 30.07 15.45 30.1 15.05 27.56 14.84 27.52 15.24"/>
                  <polygon class="cls-4" points="29.73 13.05 32.68 13.3 32.72 12.91 29.76 12.66 29.73 13.05"/>
                  <rect class="cls-4" x="33.15" y="9.4" width=".4" height="2.8" transform="translate(19.52 43.01) rotate(-84.71)"/>
                  <rect class="cls-4" x="34.99" y="7.51" width=".4" height="2.07" transform="translate(24.51 43.15) rotate(-86.49)"/>
                </g>
                <polygon class="cls-4" points="36.35 6.5 37.23 6.57 37.26 6.18 36.38 6.1 36.35 6.5"/>
              </g>
              <polygon class="cls-4" points="21.06 21.2 21.34 21.48 38.14 4.99 37.86 4.71 21.06 21.2"/>
            </g>
            <g>
              <path class="cls-1" d="M16.86,22.86s.09,0,.13,0c1.2,0,2.16-.97,2.16-2.17,0-.12-.01-.24-.03-.36.12-.7-.13-1.67-.74-2.58-.49-.74-1.11-1.28-1.7-1.54-.06-.58-.36-1.28-.88-1.92-.46-.56-.99-.96-1.5-1.17-.08-.47-.39-1.02-.89-1.49-.41-.38-.85-.63-1.26-.74-.02-.45-.34-1.03-.88-1.5-.45-.38-.94-.61-1.36-.65-.12-.35-.41-.74-.83-1.05-.39-.29-.8-.46-1.16-.49-.15-.28-.43-.56-.8-.78-.52-.31-1.06-.4-1.42-.28-.13-.28-.45-.58-.88-.78-.56-.26-1.12-.27-1.4-.05-.11-.27-.42-.55-.84-.72-.55-.23-1.1-.2-1.32.05-.23.22-.27.75-.07,1.29.16.42.43.74.69.87-.22.27-.24.84,0,1.4.18.43.47.76.75.91-.13.35-.06.9.23,1.42.2.38.48.66.74.83.03.35.18.78.45,1.17.3.43.67.74,1.02.87.03.41.23.92.6,1.38.45.56,1.01.9,1.46.94.09.41.33.87.7,1.29.45.52.99.85,1.46.95.19.51.58,1.07,1.12,1.54.62.54,1.31.87,1.89.95.24.6.76,1.24,1.47,1.76,1.14.82,2.4,1.07,3.08.66Z"/>
              <g>
                <polygon class="cls-4" points="12.77 19.87 12.8 20.26 16.17 20.02 16.15 19.62 12.77 19.87"/>
                <g>
                  <polygon class="cls-4" points="11 17.63 11.03 18.02 13.99 17.81 13.96 17.41 11 17.63"/>
                  <polygon class="cls-4" points="9.23 15.39 9.26 15.79 11.81 15.6 11.78 15.21 9.23 15.39"/>
                  <rect class="cls-4" x="6.65" y="13.11" width="2.96" height=".4" transform="translate(-.99 .66) rotate(-4.35)"/>
                  <rect class="cls-4" x="4.63" y="10.91" width="2.8" height=".4" transform="translate(-.91 .54) rotate(-4.8)"/>
                  <polygon class="cls-4" points="3.17 8.69 3.19 9.09 5.26 8.98 5.24 8.58 3.17 8.69"/>
                </g>
                <rect class="cls-4" x="2.18" y="6.41" width=".89" height=".4" transform="translate(-.46 .2) rotate(-4.08)"/>
              </g>
              <g>
                <rect class="cls-4" x="14.48" y="17.87" width="3.39" height=".4" transform="translate(-3.12 32.75) rotate(-85.43)"/>
                <g>
                  <rect class="cls-3" x="12.49" y="15.87" width="2.97" height=".4" transform="translate(-3.2 28.65) rotate(-85.2)"/>
                  <polygon class="cls-3" points="11.47 15.32 11.87 15.36 12.07 12.81 11.68 12.78 11.47 15.32"/>
                  <polygon class="cls-4" points="9.28 13.12 9.68 13.15 9.93 10.2 9.54 10.16 9.28 13.12"/>
                  <rect class="cls-4" x="6.03" y="9.34" width="2.8" height=".4" transform="translate(-2.75 16.05) rotate(-84.71)"/>
                  <polygon class="cls-4" points="4.91 8.71 5.31 8.73 5.44 6.66 5.04 6.64 4.91 8.71"/>
                </g>
                <rect class="cls-4" x="2.52" y="5.87" width=".89" height=".4" transform="translate(-3.33 8.54) rotate(-85.35)"/>
              </g>
              <rect class="cls-4" x="9.55" y="1.5" width=".4" height="23.61" transform="translate(-6.53 10.65) rotate(-44.5)"/>
            </g>
            <g>
              <path class="cls-2" d="M19.85,25.01c1.22,0,2.2-.98,2.2-2.2s-.98-2.2-2.2-2.2-2.2.99-2.2,2.2.98,2.2,2.2,2.2Z"/>
              <path class="cls-4" d="M17.45,22.81c0,1.32,1.07,2.4,2.4,2.4s2.4-1.08,2.4-2.4-1.08-2.4-2.4-2.4-2.4,1.07-2.4,2.4ZM17.85,22.81c0-1.1.9-2,2-2s2,.9,2,2-.9,2-2,2-2-.9-2-2Z"/>
            </g>
          </g>
          <g>
            <path class="cls-4" d="M18.22,2.29c.5,0,.91-.41.91-.91h0c0-.5-.41-.91-.91-.91h-6.92c-.51,0-.91.41-.91.91h0c0,.5.41.91.91.91h6.92Z"/>
            <path class="cls-4" d="M27.77,2.29c.5,0,.91-.41.91-.91h0c0-.5-.41-.91-.91-.91h-6.92c-.5,0-.91.41-.91.91h0c0,.5.41.91.91.91h6.92Z"/>
            <path class="cls-4" d="M19.96,16.23h-4.57v-.45h4.57c.41,0,.73-.33.73-.73s-.33-.73-.73-.73h-4.58c-.06-.44-.44-.79-.9-.79-.5,0-.91.41-.91.92v2.33c0,.32.17.61.42.77.12.09.28.15.44.15h5.53c.41,0,.73-.33.73-.73s-.33-.73-.73-.73Z"/>
            <path class="cls-4" d="M28.58,10.35c-.12-.1-.28-.15-.44-.15h-3.91v-.74h3.83c.5,0,.91-.41.91-.91s-.41-.91-.91-.91h-7.08v-.46s.07,0,.1,0c.51,0,.91-.41.91-.91v-1.79h4.99v1.79c0,.5.4.91.91.91s.91-.41.91-.91v-2.7c0-.16-.04-.3-.11-.44-.15-.29-.46-.48-.81-.48h-6.81c-.35,0-.65.19-.8.48-.08.13-.12.28-.12.44v2.24h-.99v-2.24c0-.16-.04-.3-.12-.44-.15-.29-.45-.48-.8-.48h-6.81c-.35,0-.65.19-.81.48-.07.13-.11.28-.11.44v2.7c0,.5.41.91.91.91s.92-.41.92-.91v-1.79h4.98v1.79c0,.5.41.91.91.91.15,0,.29-.04.41-.1v.56h-7.19s-.09,0-.13.01c-.05,0-.09.02-.14.03-.38.11-.65.46-.65.87v8.47c0,.51.41.91.92.91s.91-.4.91-.91v-7.56h4.01v.74h-2.47c-.4,0-.73.33-.73.73s.33.73.73.73h2.47v.35h-2.47c-.4,0-.73.32-.73.73s.33.73.73.73h14.2c.13,0,.26-.04.37-.1.3-.15.5-.46.5-.82v-1.45c0-.32-.17-.61-.42-.77ZM27.17,11.66v.35h-2.95v-.35h2.95ZM18.23,9.46h4.17v.74h-4.17v-.74ZM18.23,11.66h4.17v.35h-4.17v-.35Z"/>
            <path class="cls-4" d="M28.03,16.23h-4.57v-.45h4.57c.41,0,.73-.33.73-.73s-.33-.73-.73-.73h-4.58c-.06-.44-.44-.79-.9-.79-.51,0-.91.41-.91.92v2.33c0,.32.17.61.42.77.13.09.28.15.45.15h5.53c.41,0,.73-.33.73-.73s-.33-.73-.73-.73Z"/>
            <path class="cls-4" d="M28.34,31.87c-.09-.03-.19-.05-.3-.05h-6.86v-2.93c0-.74-.59-1.33-1.32-1.33s-1.31.59-1.31,1.33v2.93h-6.61s-.04,0-.07,0c-.02,0-.04,0-.06,0h-.01s-.04,0-.05,0c-.54.07-.96.52-.96,1.08v3.57c0,.61.49,1.1,1.09,1.1s1.1-.49,1.1-1.1v-2.83h5.58v3.49l-7.07,5.85c-.5.42-.57,1.16-.16,1.67.41.5,1.16.57,1.66.16l6.85-5.67,6.86,5.67c.5.42,1.25.34,1.67-.16.42-.5.35-1.25-.16-1.67l-7.03-5.82v-3.52h5.74v2.84c0,.61.49,1.1,1.1,1.1s1.09-.49,1.09-1.1v-3.57c0-.49-.33-.9-.78-1.04Z"/>
            <path class="cls-4" d="M15.79,5.95c0,.57-.46,1.03-1.03,1.03s-1.03-.46-1.03-1.03.46-1.03,1.03-1.03,1.03.46,1.03,1.03Z"/>
            <path class="cls-4" d="M25.59,5.95c0,.57-.46,1.03-1.03,1.03s-1.03-.46-1.03-1.03.46-1.03,1.03-1.03,1.03.46,1.03,1.03Z"/>
          </g>
        </g>
        <path class="cls-4" d="M38.38,4.47c-.27-.28-.87-.33-1.48-.1-.4.15-.69.4-.87.67-.36-.17-.87-.19-1.41.03-.4.17-.71.44-.91.72-.41-.09-.94,0-1.45.27-.36.2-.64.47-.83.76-.38.04-.79.18-1.18.45-.41.28-.71.65-.88,1.01-.45.06-.94.27-1.38.62-.54.43-.88.99-.97,1.49-.42.12-.87.34-1.26.68-.5.44-.83.97-.96,1.47-.54.22-1.08.61-1.54,1.13-.52.59-.86,1.27-.97,1.89-.62.28-1.26.8-1.75,1.49-.58.8-.89,1.68-.89,2.4,0,.34.07.65.22.9l-.04.03c0,.1.02.19.03.28.14,0,.27.02.4.04-.02-.11-.03-.21-.03-.33,0-.07.01-.19.01-.19l-.03-.05c-.37-.62-.09-1.82.66-2.86.48-.66,1.09-1.18,1.67-1.41l.11-.04.02-.11c.08-.57.41-1.22.9-1.78.44-.5.96-.87,1.46-1.06l.11-.04.02-.11c.09-.44.41-.94.88-1.35.38-.33.81-.56,1.2-.65l.14-.03v-.15c.04-.41.38-.93.88-1.32.41-.32.88-.53,1.27-.56h.13s.05-.12.05-.12c.13-.33.42-.66.8-.93.35-.24.75-.39,1.07-.41h.1s.05-.1.05-.1c.15-.25.42-.5.75-.67.46-.25.95-.34,1.26-.22l.17.06.08-.16c.12-.25.43-.5.81-.65.54-.23,1.01-.19,1.2-.03l.2.16.11-.23c.1-.22.4-.46.76-.59.5-.19.93-.13,1.08.02.18.15.22.6.01,1.1-.15.36-.38.64-.62.74l-.24.1.16.2c.15.19.17.67-.08,1.2-.17.36-.43.66-.68.78l-.16.07.06.17c.1.31,0,.8-.27,1.25-.19.32-.45.58-.7.73l-.09.05v.1c-.05.33-.21.71-.47,1.06-.28.37-.63.65-.96.76l-.12.04v.13c-.05.39-.27.85-.62,1.25-.41.48-.95.8-1.35.81h-.15s-.04.15-.04.15c-.11.4-.36.82-.7,1.18-.42.45-.94.76-1.38.83l-.11.02-.04.1c-.2.5-.6,1-1.12,1.42-.58.48-1.24.78-1.81.84h-.12s-.05.12-.05.12c-.26.57-.79,1.17-1.47,1.62-.83.56-1.77.83-2.44.71-.07,0-.39.03-.39.03-.08,0-.16-.01-.25-.02.03.13.05.27.06.4.06,0,.12.02.19.02l.39-.03c.72.14,1.74-.15,2.67-.77.7-.47,1.25-1.09,1.56-1.7.62-.09,1.31-.4,1.92-.9.54-.44.94-.97,1.18-1.5.5-.11,1.04-.43,1.5-.91.36-.38.59-.81.73-1.24.5-.06,1.07-.39,1.52-.91.37-.43.59-.91.66-1.35.37-.16.75-.45,1.04-.85.28-.37.43-.78.5-1.16.29-.18.58-.45.79-.8.23-.4.36-.82.36-1.19,0-.09-.02-.17-.04-.25.29-.18.56-.48.75-.87.15-.32.23-.65.23-.94,0-.19-.07-.32-.13-.47.27-.17.53-.46.69-.84.12-.28.17-.55.17-.8,0-.32-.09-.59-.28-.75Z"/>
        <path class="cls-4" d="M38.51,39.55c-.15-.4-.4-.69-.66-.87.08-.16.16-.31.16-.53,0-.28-.06-.58-.19-.88-.17-.41-.44-.72-.72-.91.02-.1.05-.2.05-.31,0-.35-.11-.75-.32-1.14-.2-.36-.47-.64-.75-.83-.04-.38-.19-.8-.45-1.18-.29-.41-.65-.71-1.01-.88-.06-.44-.26-.94-.62-1.38-.43-.54-.99-.89-1.49-.97-.12-.42-.34-.87-.68-1.27-.44-.5-.96-.84-1.46-.97-.22-.54-.6-1.08-1.13-1.54-.59-.52-1.27-.86-1.89-.97-.28-.62-.8-1.26-1.49-1.76-1.18-.85-2.54-1.13-3.3-.67l-.03-.03c-.19,0-.37.03-.55.07.01.09.03.17.03.27,0,.05-.01.1-.01.14.17-.05.35-.08.54-.08.08,0,.18,0,.18,0l.05-.03c.62-.37,1.82-.09,2.86.65.66.48,1.18,1.09,1.41,1.67l.04.11.12.02c.57.08,1.22.41,1.78.91.5.44.88.96,1.06,1.46l.04.1.11.02c.44.09.94.42,1.35.88.33.38.56.81.65,1.2l.03.14h.15c.41.04.93.38,1.33.88.32.41.53.88.55,1.27v.13s.13.04.13.04c.33.12.66.42.93.8.24.35.39.74.41,1.07v.1s.1.05.1.05c.25.15.5.43.67.75.25.46.34.95.22,1.26l-.07.17.16.08c.25.13.5.43.66.81.23.54.19,1.01.03,1.2l-.16.2.23.11c.23.1.46.4.59.76.19.5.13.93-.02,1.07-.15.18-.6.23-1.1.01-.36-.15-.64-.38-.74-.61l-.1-.23-.2.15c-.19.15-.67.17-1.2-.08-.36-.17-.66-.43-.78-.68l-.08-.16-.17.06c-.31.1-.8,0-1.25-.27-.32-.19-.58-.45-.73-.7l-.05-.09h-.1c-.33-.04-.71-.21-1.06-.46-.37-.28-.65-.62-.76-.95l-.04-.12h-.13c-.39-.05-.85-.27-1.25-.62-.48-.41-.8-.95-.81-1.36v-.15s-.15-.04-.15-.04c-.39-.1-.81-.35-1.17-.69-.45-.42-.76-.94-.83-1.38l-.02-.11-.1-.04c-.5-.21-1-.6-1.42-1.12-.48-.58-.78-1.24-.84-1.81v-.12s-.12-.05-.12-.05c-.57-.25-1.16-.79-1.62-1.47-.55-.83-.83-1.77-.71-2.44,0-.06-.02-.33-.02-.38-.13.05-.26.08-.39.1l.02.28c-.02.12-.03.24-.03.37,0,.68.29,1.52.81,2.3.47.71,1.09,1.26,1.7,1.56.09.62.4,1.31.9,1.93.44.54.97.94,1.5,1.18.11.5.42,1.04.91,1.5.38.36.82.59,1.24.73.06.5.38,1.07.91,1.52.42.37.91.59,1.36.67.16.37.45.75.85,1.04.37.28.78.44,1.16.49.18.29.45.58.8.79.5.3,1.03.4,1.44.32.18.29.48.57.87.75.53.24,1.05.25,1.41.09.17.27.46.53.85.69.63.27,1.27.22,1.54-.11.16-.15.25-.42.25-.73,0-.23-.05-.49-.15-.75Z"/>
        <path class="cls-4" d="M19.7,25.19c0-.07-.01-.13-.02-.19-.14,0-.27-.03-.4-.06.01.08.03.17.03.25,0,.09-.01.18-.01.18l.03.05c.37.62.09,1.82-.65,2.86-.48.66-1.09,1.18-1.67,1.41l-.11.04-.02.12c-.08.57-.41,1.22-.91,1.78-.44.5-.95.87-1.46,1.06l-.1.04-.02.11c-.09.44-.41.94-.88,1.35-.38.33-.81.56-1.2.65l-.14.03v.15c-.04.41-.39.93-.88,1.32-.41.33-.87.53-1.27.56h-.13s-.04.13-.04.13c-.12.32-.41.66-.8.93-.35.24-.74.39-1.07.41h-.1s-.05.09-.05.09c-.16.25-.43.5-.75.68-.46.25-.95.34-1.26.22l-.17-.06-.08.16c-.13.25-.44.5-.81.65-.54.23-1.01.19-1.2.04l-.2-.16-.11.23c-.11.23-.4.45-.76.59-.48.18-.92.13-1.07-.02-.18-.15-.22-.6-.01-1.1.15-.35.39-.64.62-.74l.23-.1-.15-.2c-.15-.19-.17-.67.08-1.2.17-.37.43-.66.68-.78l.16-.08-.06-.17c-.1-.31,0-.8.27-1.25.19-.32.44-.58.7-.73l.09-.05v-.1c.05-.33.21-.72.46-1.06.28-.37.63-.65.96-.76l.12-.04v-.13c.05-.39.27-.85.62-1.25.41-.48.94-.8,1.35-.81h.15s.04-.15.04-.15c.11-.4.35-.81.7-1.18.42-.45.94-.76,1.38-.83l.11-.02.04-.1c.2-.49.6-1,1.11-1.42.59-.48,1.25-.78,1.82-.84h.12s.05-.12.05-.12c.26-.58.79-1.16,1.47-1.62.83-.55,1.77-.83,2.44-.71.07,0,.39-.03.39-.03.12,0,.24.01.36.04-.03-.13-.04-.26-.04-.4-.11-.01-.21-.03-.32-.03l-.39.03c-.71-.13-1.74.16-2.66.77-.71.47-1.25,1.09-1.55,1.7-.62.08-1.31.4-1.93.9-.54.44-.95.97-1.18,1.5-.5.11-1.05.43-1.5.91-.36.38-.59.81-.73,1.24-.5.06-1.07.38-1.52.91-.37.43-.59.91-.67,1.36-.37.15-.75.45-1.04.85-.28.37-.44.78-.5,1.17-.29.18-.58.45-.79.8-.24.39-.36.82-.36,1.18,0,.09.02.17.04.25-.29.18-.57.48-.75.88-.15.32-.23.65-.23.94,0,.19.07.33.14.47-.27.17-.53.46-.69.84-.11.28-.17.55-.17.8,0,.32.09.59.28.75.27.28.88.33,1.48.1.4-.15.69-.39.87-.66.36.17.87.19,1.41-.04.4-.17.71-.43.91-.72.4.1.93.01,1.44-.27.36-.2.64-.47.84-.76.38-.04.8-.19,1.18-.45.41-.29.71-.65.88-1.02.45-.06.94-.26,1.38-.62.54-.43.89-.99.97-1.48.42-.12.87-.34,1.26-.68.5-.44.84-.97.97-1.46.54-.22,1.08-.61,1.54-1.13.52-.59.86-1.27.97-1.89.63-.28,1.26-.81,1.76-1.49.58-.8.89-1.68.89-2.4,0-.34-.07-.65-.22-.9l.03-.03Z"/>
        <path class="cls-4" d="M17.71,22.81c0-.1.02-.2.03-.29-.23.1-.49.15-.75.15h-.06s-.17.02-.17.02c-.62.37-1.83.09-2.87-.66-.66-.48-1.17-1.09-1.41-1.67l-.04-.11h-.11c-.57-.09-1.22-.42-1.79-.92-.5-.43-.87-.95-1.06-1.46l-.04-.1-.11-.02c-.44-.09-.95-.42-1.35-.88-.33-.38-.56-.8-.65-1.2l-.03-.14h-.14c-.41-.04-.93-.38-1.33-.88-.33-.42-.53-.88-.56-1.27v-.13s-.13-.05-.13-.05c-.32-.12-.66-.41-.93-.8-.24-.35-.39-.74-.42-1.07v-.1s-.09-.05-.09-.05c-.25-.15-.5-.43-.67-.75-.25-.46-.34-.95-.22-1.26l.06-.17-.16-.08c-.25-.13-.5-.43-.65-.81-.23-.54-.19-1.01-.04-1.2l.16-.2-.23-.11c-.23-.11-.46-.41-.59-.76-.19-.5-.13-.93.02-1.08.15-.18.6-.22,1.1-.01.35.15.64.39.74.62l.1.24.2-.16c.19-.15.67-.17,1.2.08.37.17.66.43.78.68l.08.16.17-.06c.31-.11.8,0,1.25.27.32.19.58.45.73.71l.05.09h.1c.33.04.71.21,1.06.46.37.28.65.63.76.96l.04.12h.13c.39.05.85.28,1.25.62.48.41.8.94.81,1.35v.15s.15.04.15.04c.39.1.81.35,1.18.7.45.42.76.94.83,1.38l.02.11.1.04c.5.2,1,.6,1.42,1.11.48.59.79,1.25.84,1.81v.12s.12.05.12.05c.58.26,1.17.8,1.62,1.47.56.83.83,1.76.71,2.44,0,.06.03.39.03.39,0,.06-.01.11-.02.16.13-.06.27-.12.41-.15,0,0,0,0,0-.01l-.03-.39c.02-.12.03-.24.03-.37,0-.68-.29-1.52-.81-2.3-.47-.7-1.08-1.25-1.7-1.55-.09-.62-.4-1.31-.9-1.93-.44-.54-.97-.95-1.49-1.18-.11-.51-.43-1.04-.91-1.5-.38-.36-.82-.59-1.24-.73-.07-.5-.39-1.07-.92-1.52-.43-.37-.91-.59-1.35-.67-.16-.37-.45-.75-.84-1.05-.38-.28-.79-.43-1.16-.49-.18-.29-.45-.58-.81-.79-.5-.3-1.03-.41-1.43-.32-.18-.29-.49-.57-.88-.75-.53-.25-1.04-.25-1.41-.09-.17-.27-.46-.53-.84-.69-.63-.26-1.27-.22-1.55.11-.16.16-.25.42-.25.73,0,.23.05.49.14.75.15.39.39.69.66.87-.08.16-.16.31-.16.52,0,.27.06.58.19.89.17.4.43.71.72.91-.02.1-.05.2-.05.31,0,.35.11.75.32,1.13.19.36.46.64.75.83.04.39.19.8.45,1.18.29.41.65.72,1.02.88.06.44.26.94.61,1.38.43.54.99.89,1.49.97.12.43.34.87.68,1.26.44.5.96.84,1.47.97.22.54.61,1.08,1.13,1.54.59.52,1.27.86,1.89.97.28.62.8,1.26,1.49,1.76,1.18.85,2.54,1.13,3.3.67l.03.04c.26,0,.5-.05.74-.13,0-.04-.01-.08-.01-.13Z"/>
      </g>
    </g>
  </g>
</svg>